<svg xmlns="http://www.w3.org/2000/svg" width="576.4000000000001" height="610" style="width: 576.4px; height: 610px;"><defs id="defs_9"/><path opacity="1" stroke-width="1" stroke-opacity="1" fill-opacity="1" d="M 0,0 l 576.4000000000001,0 l 0,610 l-576.4000000000001 0 z" fill="#fff" stroke="none"/><g opacity="1" transform="matrix(1,0,0,1,31.700000762939453,15)"><g opacity="1" class="er__relations"><path opacity="1" stroke-width="1" stroke-opacity="1" fill-opacity="1" d="M 208 43.00997506234414L 54 101L 54 151" stroke="#3b4044" stroke-linejoin="round" fill="none"/><path opacity="0.85" stroke-width="1" stroke-opacity="1" fill-opacity="1" d="M 12.700000000000003,90.5 l 82.6,0 l 0,23 l-82.6 0 z" fill="#fff" id="#rel72" stroke="none" class="label-bg"/><text alignment-baseline="central" text-anchor="middle" opacity="1" stroke-width="1" stroke-opacity="1" fill-opacity="1" x="54" y="101" font-size="14" font-family="Source Code Pro, sans-serif" font-style="normal" font-weight="400" font-variant="normal" id="rel72" fill="#3b4044" paint-order="stroke" style="stroke-linecap:butt; stroke-linejoin:miter;" stroke="none" class="er__relationship-label">Title(E1)</text><path opacity="1" stroke-width="1" stroke-opacity="1" fill-opacity="1" d="M9,-9 L9,9 M15,-9 L15,9" stroke="#3b4044" id="ModuleTitle(E1)ModuleTitle-start" fill="none" class="er-marker er-marker--only-one" transform="matrix(-0.9358487725257874,0.3524019122123718,-0.3524019122123718,-0.9358487725257874,208,43.00997543334961)"/><path opacity="1" stroke-width="1" stroke-opacity="1" fill-opacity="1" d="M9,-9 L9,9 M15,-9 L15,9" stroke="#3b4044" id="ModuleTitle(E1)ModuleTitle-end" fill="none" class="er-marker er-marker--only-one" transform="matrix(6.123234262925839e-17,-1,1,6.123234262925839e-17,54,151)"/><path opacity="1" stroke-width="1" stroke-opacity="1" fill-opacity="1" d="M 254.5 51L 254.5 101L 254.5 151" stroke="#3b4044" stroke-linejoin="round" fill="none"/><path opacity="0.85" stroke-width="1" stroke-opacity="1" fill-opacity="1" d="M 200.6,90.5 l 107.8,0 l 0,23 l-107.8 0 z" fill="#fff" id="#rel73" stroke="none" class="label-bg"/><text alignment-baseline="central" text-anchor="middle" opacity="1" stroke-width="1" stroke-opacity="1" fill-opacity="1" x="254.5" y="101" font-size="14" font-family="Source Code Pro, sans-serif" font-style="normal" font-weight="400" font-variant="normal" id="rel73" fill="#3b4044" paint-order="stroke" style="stroke-linecap:butt; stroke-linejoin:miter;" stroke="none" class="er__relationship-label">Subtitle(E2)</text><path opacity="1" stroke-width="1" stroke-opacity="1" fill-opacity="1" d="M9,-9 L9,9 M15,-9 L15,9" stroke="#3b4044" id="ModuleSubtitle(E2)ModuleSubtitle-start" fill="none" class="er-marker er-marker--only-one" transform="matrix(6.123234262925839e-17,1,-1,6.123234262925839e-17,254.5,51)"/><path opacity="1" stroke-width="1" stroke-opacity="1" fill-opacity="1" d="M9,-9 L9,9 M15,-9 L15,9" stroke="#3b4044" id="ModuleSubtitle(E2)ModuleSubtitle-end" fill="none" class="er-marker er-marker--only-one" transform="matrix(6.123234262925839e-17,-1,1,6.123234262925839e-17,254.5,151)"/><path opacity="1" stroke-width="1" stroke-opacity="1" fill-opacity="1" d="M 301 42.66748166259168L 459 101L 459 151" stroke="#3b4044" stroke-linejoin="round" fill="none"/><path opacity="0.85" stroke-width="1" stroke-opacity="1" fill-opacity="1" d="M 413.5,90.5 l 91,0 l 0,23 l-91 0 z" fill="#fff" id="#rel74" stroke="none" class="label-bg"/><text alignment-baseline="central" text-anchor="middle" opacity="1" stroke-width="1" stroke-opacity="1" fill-opacity="1" x="459" y="101" font-size="14" font-family="Source Code Pro, sans-serif" font-style="normal" font-weight="400" font-variant="normal" id="rel74" fill="#3b4044" paint-order="stroke" style="stroke-linecap:butt; stroke-linejoin:miter;" stroke="none" class="er__relationship-label">Niveau(E3)</text><g opacity="1" class="er-marker er-marker--zero-or-more" transform="matrix(0.938107967376709,0.3463430404663086,-0.3463430404663086,0.938107967376709,301,42.66748046875)"><circle opacity="1" stroke-width="1" stroke-opacity="1" fill-opacity="1" cx="28" cy="0" r="6" stroke="#3b4044" id="ModuleNiveau(E3)ModuleNiveau-start" fill="#fff"/><path opacity="1" stroke-width="1" stroke-opacity="1" fill-opacity="1" stroke="#3b4044" id="ModuleNiveau(E3)ModuleNiveau-start" d="M-18,0 Q 0,18 18,0 Q 0,-18 -18,0" fill="none"/></g><path opacity="1" stroke-width="1" stroke-opacity="1" fill-opacity="1" d="M9,-9 L9,9 M15,-9 L15,9" stroke="#3b4044" id="ModuleNiveau(E3)ModuleNiveau-end" fill="none" class="er-marker er-marker--only-one" transform="matrix(6.123234262925839e-17,-1,1,6.123234262925839e-17,459,151)"/><path opacity="1" stroke-width="1" stroke-opacity="1" fill-opacity="1" d="M 54 202L 54 252L 188 310.4788029925187" stroke="#3b4044" stroke-linejoin="round" fill="none"/><path opacity="0.85" stroke-width="1" stroke-opacity="1" fill-opacity="1" d="M -16.700000000000003,242.5 l 141.4,0 l 0,21 l-141.4 0 z" fill="#fff" id="#rel75" stroke="none" class="label-bg"/><text alignment-baseline="central" text-anchor="middle" opacity="1" stroke-width="1" stroke-opacity="1" fill-opacity="1" x="54" y="252" font-size="14" font-family="Source Code Pro, sans-serif" font-style="normal" font-weight="400" font-variant="normal" id="rel75" fill="#3b4044" paint-order="stroke" style="stroke-linecap:butt; stroke-linejoin:miter;" stroke="none" class="er__relationship-label">Translated_Title</text><path opacity="1" stroke-width="1" stroke-opacity="1" fill-opacity="1" d="M9,-9 L9,9 M15,-9 L15,9" stroke="#3b4044" id="ModuleTitleTranslated_TitleTranslatedText-start" fill="none" class="er-marker er-marker--only-one" transform="matrix(6.123234262925839e-17,1,-1,6.123234262925839e-17,54,202)"/><g opacity="1" class="er-marker er-marker--zero-or-more" transform="matrix(-0.9165241718292236,-0.3999793529510498,0.3999793529510498,-0.9165241718292236,188,310.4787902832031)"><circle opacity="1" stroke-width="1" stroke-opacity="1" fill-opacity="1" cx="28" cy="0" r="6" stroke="#3b4044" id="ModuleTitleTranslated_TitleTranslatedText-end" fill="#fff"/><path opacity="1" stroke-width="1" stroke-opacity="1" fill-opacity="1" stroke="#3b4044" id="ModuleTitleTranslated_TitleTranslatedText-end" d="M-18,0 Q 0,18 18,0 Q 0,-18 -18,0" fill="none"/></g><path opacity="1" stroke-width="1" stroke-opacity="1" fill-opacity="1" d="M 254.5 202L 254.5 252L 254.5 302" stroke="#3b4044" stroke-linejoin="round" fill="none"/><path opacity="0.85" stroke-width="1" stroke-opacity="1" fill-opacity="1" d="M 183.8,242.5 l 141.4,0 l 0,21 l-141.4 0 z" fill="#fff" id="#rel76" stroke="none" class="label-bg"/><text alignment-baseline="central" text-anchor="middle" opacity="1" stroke-width="1" stroke-opacity="1" fill-opacity="1" x="254.5" y="252" font-size="14" font-family="Source Code Pro, sans-serif" font-style="normal" font-weight="400" font-variant="normal" id="rel76" fill="#3b4044" paint-order="stroke" style="stroke-linecap:butt; stroke-linejoin:miter;" stroke="none" class="er__relationship-label">Translated_Title</text><path opacity="1" stroke-width="1" stroke-opacity="1" fill-opacity="1" d="M9,-9 L9,9 M15,-9 L15,9" stroke="#3b4044" id="ModuleSubtitleTranslated_TitleTranslatedText-start" fill="none" class="er-marker er-marker--only-one" transform="matrix(6.123234262925839e-17,1,-1,6.123234262925839e-17,254.5,202)"/><g opacity="1" class="er-marker er-marker--zero-or-more" transform="matrix(6.123234262925839e-17,-1,1,6.123234262925839e-17,254.5,302)"><circle opacity="1" stroke-width="1" stroke-opacity="1" fill-opacity="1" cx="28" cy="0" r="6" stroke="#3b4044" id="ModuleSubtitleTranslated_TitleTranslatedText-end" fill="#fff"/><path opacity="1" stroke-width="1" stroke-opacity="1" fill-opacity="1" stroke="#3b4044" id="ModuleSubtitleTranslated_TitleTranslatedText-end" d="M-18,0 Q 0,18 18,0 Q 0,-18 -18,0" fill="none"/></g><path opacity="1" stroke-width="1" stroke-opacity="1" fill-opacity="1" d="M 459 202L 459 252L 321 311.0464547677262" stroke="#3b4044" stroke-linejoin="round" fill="none"/><path opacity="0.85" stroke-width="1" stroke-opacity="1" fill-opacity="1" d="M 388.3,242.5 l 141.4,0 l 0,21 l-141.4 0 z" fill="#fff" id="#rel77" stroke="none" class="label-bg"/><text alignment-baseline="central" text-anchor="middle" opacity="1" stroke-width="1" stroke-opacity="1" fill-opacity="1" x="459" y="252" font-size="14" font-family="Source Code Pro, sans-serif" font-style="normal" font-weight="400" font-variant="normal" id="rel77" fill="#3b4044" paint-order="stroke" style="stroke-linecap:butt; stroke-linejoin:miter;" stroke="none" class="er__relationship-label">Translated_Title</text><path opacity="1" stroke-width="1" stroke-opacity="1" fill-opacity="1" d="M9,-9 L9,9 M15,-9 L15,9" stroke="#3b4044" id="ModuleNiveauTranslated_TitleTranslatedText-start" fill="none" class="er-marker er-marker--only-one" transform="matrix(6.123234262925839e-17,1,-1,6.123234262925839e-17,459,202)"/><g opacity="1" class="er-marker er-marker--zero-or-more" transform="matrix(0.9193773865699768,-0.3933766484260559,0.3933766484260559,0.9193773865699768,321,311.04644775390625)"><circle opacity="1" stroke-width="1" stroke-opacity="1" fill-opacity="1" cx="28" cy="0" r="6" stroke="#3b4044" id="ModuleNiveauTranslated_TitleTranslatedText-end" fill="#fff"/><path opacity="1" stroke-width="1" stroke-opacity="1" fill-opacity="1" stroke="#3b4044" id="ModuleNiveauTranslated_TitleTranslatedText-end" d="M-18,0 Q 0,18 18,0 Q 0,-18 -18,0" fill="none"/></g><path opacity="1" stroke-width="1" stroke-opacity="1" fill-opacity="1" d="M 254.5 377L 254.5 427L 254.5 477" stroke="#3b4044" stroke-linejoin="round" fill="none"/><path opacity="0.85" stroke-width="1" stroke-opacity="1" fill-opacity="1" d="M 217.4,416.5 l 74.2,0 l 0,23 l-74.2 0 z" fill="#fff" id="#rel78" stroke="none" class="label-bg"/><text alignment-baseline="central" text-anchor="middle" opacity="1" stroke-width="1" stroke-opacity="1" fill-opacity="1" x="254.5" y="427" font-size="14" font-family="Source Code Pro, sans-serif" font-style="normal" font-weight="400" font-variant="normal" id="rel78" fill="#3b4044" paint-order="stroke" style="stroke-linecap:butt; stroke-linejoin:miter;" stroke="none" class="er__relationship-label">Language</text><g opacity="1" class="er-marker er-marker--zero-or-more" transform="matrix(6.123234262925839e-17,1,-1,6.123234262925839e-17,254.5,377)"><circle opacity="1" stroke-width="1" stroke-opacity="1" fill-opacity="1" cx="28" cy="0" r="6" stroke="#3b4044" id="TranslatedTextLanguageLanguage-start" fill="#fff"/><path opacity="1" stroke-width="1" stroke-opacity="1" fill-opacity="1" stroke="#3b4044" id="TranslatedTextLanguageLanguage-start" d="M-18,0 Q 0,18 18,0 Q 0,-18 -18,0" fill="none"/></g><path opacity="1" stroke-width="1" stroke-opacity="1" fill-opacity="1" d="M9,-9 L9,9 M15,-9 L15,9" stroke="#3b4044" id="TranslatedTextLanguageLanguage-end" fill="none" class="er-marker er-marker--only-one" transform="matrix(6.123234262925839e-17,-1,1,6.123234262925839e-17,254.5,477)"/></g><g opacity="1" class="er__entity"><path opacity="1" stroke-width="1" stroke-opacity="1" fill-opacity="1" d="M 189.5,301.5 l 129,0 a 2,2,0,0,1,2,2 l 0,71 a 2,2,0,0,1,-2,2 l -129,0 a 2,2,0,0,1,-2,-2 l 0,-71 a 2,2,0,0,1,2,-2 z" fill="#fdb05e" stroke="#3b4044" class="er__entity-box"/><text alignment-baseline="central" text-anchor="middle" opacity="1" stroke-width="1" stroke-opacity="1" fill-opacity="1" x="187.5" y="301.5" font-size="14" font-family="Source Code Pro, sans-serif" font-style="normal" font-weight="bold" font-variant="normal" fill="#3b4044" width="117.6" height="11" id="entity-TranslatedText" paint-order="stroke" style="stroke-linecap:butt; stroke-linejoin:miter;" stroke="none" class="er__entity-label" transform="matrix(1,0,0,1,66.5,13)">TranslatedText</text><g opacity="1"><g opacity="1"><path opacity="1" stroke-width="1" stroke-opacity="1" fill-opacity="1" d="M 187.5,327.5 l 64,0 l 0,25 l-64 0 z" fill="#fffbf9" stroke="#3b4044"/><text alignment-baseline="central" text-anchor="left" opacity="1" stroke-width="1" stroke-opacity="1" fill-opacity="1" x="187.5" y="301.5" font-size="11.9" font-family="Source Code Pro, sans-serif" font-style="normal" font-weight="normal" font-variant="normal" width="49.98" height="9" fill="#3b4044" id="entity-TranslatedText-attr-1-type" paint-order="stroke" style="stroke-linecap:butt; stroke-linejoin:miter;" stroke="none" class="er__entity-label" transform="matrix(1,0,0,1,7.5,38.5)">INTEGER</text><path opacity="1" stroke-width="1" stroke-opacity="1" fill-opacity="1" d="M 251.5,327.5 l 69,0 l 0,25 l-69 0 z" fill="#fffbf9" stroke="#3b4044"/><text alignment-baseline="central" text-anchor="left" opacity="1" stroke-width="1" stroke-opacity="1" fill-opacity="1" x="187.5" y="301.5" font-size="11.9" font-family="Source Code Pro, sans-serif" font-style="normal" font-weight="normal" font-variant="normal" width="14.28" height="10" fill="#3b4044" id="entity-TranslatedText-attr-1-name" paint-order="stroke" style="stroke-linecap:butt; stroke-linejoin:miter;" stroke="none" class="er__entity-label" transform="matrix(1,0,0,1,71.5,38.5)">Id</text></g><g opacity="1"><path opacity="1" stroke-width="1" stroke-opacity="1" fill-opacity="1" d="M 187.5,352.5 l 64,0 l 0,24 l-64 0 z" fill="#fffbf9" stroke="#3b4044"/><text alignment-baseline="central" text-anchor="left" opacity="1" stroke-width="1" stroke-opacity="1" fill-opacity="1" x="187.5" y="301.5" font-size="11.9" font-family="Source Code Pro, sans-serif" font-style="normal" font-weight="normal" font-variant="normal" width="49.98" height="9" fill="#3b4044" id="entity-TranslatedText-attr-2-type" paint-order="stroke" style="stroke-linecap:butt; stroke-linejoin:miter;" stroke="none" class="er__entity-label" transform="matrix(1,0,0,1,7.5,63)">VARCHAR</text><path opacity="1" stroke-width="1" stroke-opacity="1" fill-opacity="1" d="M 251.5,352.5 l 69,0 l 0,24 l-69 0 z" fill="#fffbf9" stroke="#3b4044"/><text alignment-baseline="central" text-anchor="left" opacity="1" stroke-width="1" stroke-opacity="1" fill-opacity="1" x="187.5" y="301.5" font-size="11.9" font-family="Source Code Pro, sans-serif" font-style="normal" font-weight="normal" font-variant="normal" width="28.56" height="9" fill="#3b4044" id="entity-TranslatedText-attr-2-name" paint-order="stroke" style="stroke-linecap:butt; stroke-linejoin:miter;" stroke="none" class="er__entity-label" transform="matrix(1,0,0,1,71.5,63)">Text</text></g></g></g><g opacity="1" class="er__entity"><path opacity="1" stroke-width="1" stroke-opacity="1" fill-opacity="1" d="M 209.5,-0.5 l 89,0 a 2,2,0,0,1,2,2 l 0,47 a 2,2,0,0,1,-2,2 l -89,0 a 2,2,0,0,1,-2,-2 l 0,-47 a 2,2,0,0,1,2,-2 z" fill="#fdb05e" stroke="#3b4044" class="er__entity-box"/><text alignment-baseline="central" text-anchor="middle" opacity="1" stroke-width="1" stroke-opacity="1" fill-opacity="1" x="207.5" y="-0.5" font-size="14" font-family="Source Code Pro, sans-serif" font-style="normal" font-weight="bold" font-variant="normal" fill="#3b4044" width="50.4" height="11" id="entity-Module" paint-order="stroke" style="stroke-linecap:butt; stroke-linejoin:miter;" stroke="none" class="er__entity-label" transform="matrix(1,0,0,1,46.5,13)">Module</text><g opacity="1"><g opacity="1"><path opacity="1" stroke-width="1" stroke-opacity="1" fill-opacity="1" d="M 207.5,25.5 l 64,0 l 0,25 l-64 0 z" fill="#fffbf9" stroke="#3b4044"/><text alignment-baseline="central" text-anchor="left" opacity="1" stroke-width="1" stroke-opacity="1" fill-opacity="1" x="207.5" y="-0.5" font-size="11.9" font-family="Source Code Pro, sans-serif" font-style="normal" font-weight="normal" font-variant="normal" width="49.98" height="9" fill="#3b4044" id="entity-Module-attr-1-type" paint-order="stroke" style="stroke-linecap:butt; stroke-linejoin:miter;" stroke="none" class="er__entity-label" transform="matrix(1,0,0,1,7.5,38.5)">INTEGER</text><path opacity="1" stroke-width="1" stroke-opacity="1" fill-opacity="1" d="M 271.5,25.5 l 29,0 l 0,25 l-29 0 z" fill="#fffbf9" stroke="#3b4044"/><text alignment-baseline="central" text-anchor="left" opacity="1" stroke-width="1" stroke-opacity="1" fill-opacity="1" x="207.5" y="-0.5" font-size="11.9" font-family="Source Code Pro, sans-serif" font-style="normal" font-weight="normal" font-variant="normal" width="14.28" height="10" fill="#3b4044" id="entity-Module-attr-1-name" paint-order="stroke" style="stroke-linecap:butt; stroke-linejoin:miter;" stroke="none" class="er__entity-label" transform="matrix(1,0,0,1,71.5,38.5)">Id</text></g></g></g><g opacity="1" class="er__entity"><path opacity="1" stroke-width="1" stroke-opacity="1" fill-opacity="1" d="M 2,150.5 l 104,0 a 2,2,0,0,1,2,2 l 0,47 a 2,2,0,0,1,-2,2 l -104,0 a 2,2,0,0,1,-2,-2 l 0,-47 a 2,2,0,0,1,2,-2 z" fill="#fdb05e" stroke="#3b4044" class="er__entity-box"/><text alignment-baseline="central" text-anchor="middle" opacity="1" stroke-width="1" stroke-opacity="1" fill-opacity="1" x="0" y="150.5" font-size="14" font-family="Source Code Pro, sans-serif" font-style="normal" font-weight="bold" font-variant="normal" fill="#3b4044" width="92.4" height="11" id="entity-ModuleTitle" paint-order="stroke" style="stroke-linecap:butt; stroke-linejoin:miter;" stroke="none" class="er__entity-label" transform="matrix(1,0,0,1,54,13)">ModuleTitle</text><g opacity="1"><g opacity="1"><path opacity="1" stroke-width="1" stroke-opacity="1" fill-opacity="1" d="M 0,176.5 l 64,0 l 0,25 l-64 0 z" fill="#fffbf9" stroke="#3b4044"/><text alignment-baseline="central" text-anchor="left" opacity="1" stroke-width="1" stroke-opacity="1" fill-opacity="1" x="0" y="150.5" font-size="11.9" font-family="Source Code Pro, sans-serif" font-style="normal" font-weight="normal" font-variant="normal" width="49.98" height="9" fill="#3b4044" id="entity-ModuleTitle-attr-1-type" paint-order="stroke" style="stroke-linecap:butt; stroke-linejoin:miter;" stroke="none" class="er__entity-label" transform="matrix(1,0,0,1,7.5,38.5)">INTEGER</text><path opacity="1" stroke-width="1" stroke-opacity="1" fill-opacity="1" d="M 64,176.5 l 44,0 l 0,25 l-44 0 z" fill="#fffbf9" stroke="#3b4044"/><text alignment-baseline="central" text-anchor="left" opacity="1" stroke-width="1" stroke-opacity="1" fill-opacity="1" x="0" y="150.5" font-size="11.9" font-family="Source Code Pro, sans-serif" font-style="normal" font-weight="normal" font-variant="normal" width="14.28" height="10" fill="#3b4044" id="entity-ModuleTitle-attr-1-name" paint-order="stroke" style="stroke-linecap:butt; stroke-linejoin:miter;" stroke="none" class="er__entity-label" transform="matrix(1,0,0,1,71.5,38.5)">Id</text></g></g></g><g opacity="1" class="er__entity"><path opacity="1" stroke-width="1" stroke-opacity="1" fill-opacity="1" d="M 189.5,150.5 l 129,0 a 2,2,0,0,1,2,2 l 0,47 a 2,2,0,0,1,-2,2 l -129,0 a 2,2,0,0,1,-2,-2 l 0,-47 a 2,2,0,0,1,2,-2 z" fill="#fdb05e" stroke="#3b4044" class="er__entity-box"/><text alignment-baseline="central" text-anchor="middle" opacity="1" stroke-width="1" stroke-opacity="1" fill-opacity="1" x="187.5" y="150.5" font-size="14" font-family="Source Code Pro, sans-serif" font-style="normal" font-weight="bold" font-variant="normal" fill="#3b4044" width="117.6" height="11" id="entity-ModuleSubtitle" paint-order="stroke" style="stroke-linecap:butt; stroke-linejoin:miter;" stroke="none" class="er__entity-label" transform="matrix(1,0,0,1,66.5,13)">ModuleSubtitle</text><g opacity="1"><g opacity="1"><path opacity="1" stroke-width="1" stroke-opacity="1" fill-opacity="1" d="M 187.5,176.5 l 64,0 l 0,25 l-64 0 z" fill="#fffbf9" stroke="#3b4044"/><text alignment-baseline="central" text-anchor="left" opacity="1" stroke-width="1" stroke-opacity="1" fill-opacity="1" x="187.5" y="150.5" font-size="11.9" font-family="Source Code Pro, sans-serif" font-style="normal" font-weight="normal" font-variant="normal" width="49.98" height="9" fill="#3b4044" id="entity-ModuleSubtitle-attr-1-type" paint-order="stroke" style="stroke-linecap:butt; stroke-linejoin:miter;" stroke="none" class="er__entity-label" transform="matrix(1,0,0,1,7.5,38.5)">INTEGER</text><path opacity="1" stroke-width="1" stroke-opacity="1" fill-opacity="1" d="M 251.5,176.5 l 69,0 l 0,25 l-69 0 z" fill="#fffbf9" stroke="#3b4044"/><text alignment-baseline="central" text-anchor="left" opacity="1" stroke-width="1" stroke-opacity="1" fill-opacity="1" x="187.5" y="150.5" font-size="11.9" font-family="Source Code Pro, sans-serif" font-style="normal" font-weight="normal" font-variant="normal" width="14.28" height="10" fill="#3b4044" id="entity-ModuleSubtitle-attr-1-name" paint-order="stroke" style="stroke-linecap:butt; stroke-linejoin:miter;" stroke="none" class="er__entity-label" transform="matrix(1,0,0,1,71.5,38.5)">Id</text></g></g></g><g opacity="1" class="er__entity"><path opacity="1" stroke-width="1" stroke-opacity="1" fill-opacity="1" d="M 403,150.5 l 112,0 a 2,2,0,0,1,2,2 l 0,47 a 2,2,0,0,1,-2,2 l -112,0 a 2,2,0,0,1,-2,-2 l 0,-47 a 2,2,0,0,1,2,-2 z" fill="#fdb05e" stroke="#3b4044" class="er__entity-box"/><text alignment-baseline="central" text-anchor="middle" opacity="1" stroke-width="1" stroke-opacity="1" fill-opacity="1" x="401" y="150.5" font-size="14" font-family="Source Code Pro, sans-serif" font-style="normal" font-weight="bold" font-variant="normal" fill="#3b4044" width="100.8" height="11" id="entity-ModuleNiveau" paint-order="stroke" style="stroke-linecap:butt; stroke-linejoin:miter;" stroke="none" class="er__entity-label" transform="matrix(1,0,0,1,58,13)">ModuleNiveau</text><g opacity="1"><g opacity="1"><path opacity="1" stroke-width="1" stroke-opacity="1" fill-opacity="1" d="M 401,176.5 l 64,0 l 0,25 l-64 0 z" fill="#fffbf9" stroke="#3b4044"/><text alignment-baseline="central" text-anchor="left" opacity="1" stroke-width="1" stroke-opacity="1" fill-opacity="1" x="401" y="150.5" font-size="11.9" font-family="Source Code Pro, sans-serif" font-style="normal" font-weight="normal" font-variant="normal" width="49.98" height="9" fill="#3b4044" id="entity-ModuleNiveau-attr-1-type" paint-order="stroke" style="stroke-linecap:butt; stroke-linejoin:miter;" stroke="none" class="er__entity-label" transform="matrix(1,0,0,1,7.5,38.5)">INTEGER</text><path opacity="1" stroke-width="1" stroke-opacity="1" fill-opacity="1" d="M 465,176.5 l 52,0 l 0,25 l-52 0 z" fill="#fffbf9" stroke="#3b4044"/><text alignment-baseline="central" text-anchor="left" opacity="1" stroke-width="1" stroke-opacity="1" fill-opacity="1" x="401" y="150.5" font-size="11.9" font-family="Source Code Pro, sans-serif" font-style="normal" font-weight="normal" font-variant="normal" width="14.28" height="10" fill="#3b4044" id="entity-ModuleNiveau-attr-1-name" paint-order="stroke" style="stroke-linecap:butt; stroke-linejoin:miter;" stroke="none" class="er__entity-label" transform="matrix(1,0,0,1,71.5,38.5)">Id</text></g></g></g><g opacity="1" class="er__entity"><path opacity="1" stroke-width="1" stroke-opacity="1" fill-opacity="1" d="M 192,476.5 l 124,0 a 2,2,0,0,1,2,2 l 0,99 a 2,2,0,0,1,-2,2 l -124,0 a 2,2,0,0,1,-2,-2 l 0,-99 a 2,2,0,0,1,2,-2 z" fill="#fdb05e" stroke="#3b4044" class="er__entity-box"/><text alignment-baseline="central" text-anchor="middle" opacity="1" stroke-width="1" stroke-opacity="1" fill-opacity="1" x="190" y="476.5" font-size="14" font-family="Source Code Pro, sans-serif" font-style="normal" font-weight="bold" font-variant="normal" fill="#3b4044" width="67.2" height="14" id="entity-Language" paint-order="stroke" style="stroke-linecap:butt; stroke-linejoin:miter;" stroke="none" class="er__entity-label" transform="matrix(1,0,0,1,64,14.5)">Language</text><g opacity="1"><g opacity="1"><path opacity="1" stroke-width="1" stroke-opacity="1" fill-opacity="1" d="M 190,505.5 l 64,0 l 0,25 l-64 0 z" fill="#fffbf9" stroke="#3b4044"/><text alignment-baseline="central" text-anchor="left" opacity="1" stroke-width="1" stroke-opacity="1" fill-opacity="1" x="190" y="476.5" font-size="11.9" font-family="Source Code Pro, sans-serif" font-style="normal" font-weight="normal" font-variant="normal" width="49.98" height="9" fill="#3b4044" id="entity-Language-attr-1-type" paint-order="stroke" style="stroke-linecap:butt; stroke-linejoin:miter;" stroke="none" class="er__entity-label" transform="matrix(1,0,0,1,7.5,41.5)">INTEGER</text><path opacity="1" stroke-width="1" stroke-opacity="1" fill-opacity="1" d="M 254,505.5 l 64,0 l 0,25 l-64 0 z" fill="#fffbf9" stroke="#3b4044"/><text alignment-baseline="central" text-anchor="left" opacity="1" stroke-width="1" stroke-opacity="1" fill-opacity="1" x="190" y="476.5" font-size="11.9" font-family="Source Code Pro, sans-serif" font-style="normal" font-weight="normal" font-variant="normal" width="14.28" height="10" fill="#3b4044" id="entity-Language-attr-1-name" paint-order="stroke" style="stroke-linecap:butt; stroke-linejoin:miter;" stroke="none" class="er__entity-label" transform="matrix(1,0,0,1,71.5,41.5)">Id</text></g><g opacity="1"><path opacity="1" stroke-width="1" stroke-opacity="1" fill-opacity="1" d="M 190,530.5 l 64,0 l 0,24 l-64 0 z" fill="#fffbf9" stroke="#3b4044"/><text alignment-baseline="central" text-anchor="left" opacity="1" stroke-width="1" stroke-opacity="1" fill-opacity="1" x="190" y="476.5" font-size="11.9" font-family="Source Code Pro, sans-serif" font-style="normal" font-weight="normal" font-variant="normal" width="49.98" height="9" fill="#3b4044" id="entity-Language-attr-2-type" paint-order="stroke" style="stroke-linecap:butt; stroke-linejoin:miter;" stroke="none" class="er__entity-label" transform="matrix(1,0,0,1,7.5,66)">VARCHAR</text><path opacity="1" stroke-width="1" stroke-opacity="1" fill-opacity="1" d="M 254,530.5 l 64,0 l 0,24 l-64 0 z" fill="#fffbf9" stroke="#3b4044"/><text alignment-baseline="central" text-anchor="left" opacity="1" stroke-width="1" stroke-opacity="1" fill-opacity="1" x="190" y="476.5" font-size="11.9" font-family="Source Code Pro, sans-serif" font-style="normal" font-weight="normal" font-variant="normal" width="28.56" height="9" fill="#3b4044" id="entity-Language-attr-2-name" paint-order="stroke" style="stroke-linecap:butt; stroke-linejoin:miter;" stroke="none" class="er__entity-label" transform="matrix(1,0,0,1,71.5,66)">Name</text></g><g opacity="1"><path opacity="1" stroke-width="1" stroke-opacity="1" fill-opacity="1" d="M 190,554.5 l 64,0 l 0,25 l-64 0 z" fill="#fffbf9" stroke="#3b4044"/><text alignment-baseline="central" text-anchor="left" opacity="1" stroke-width="1" stroke-opacity="1" fill-opacity="1" x="190" y="476.5" font-size="11.9" font-family="Source Code Pro, sans-serif" font-style="normal" font-weight="normal" font-variant="normal" width="49.98" height="9" fill="#3b4044" id="entity-Language-attr-3-type" paint-order="stroke" style="stroke-linecap:butt; stroke-linejoin:miter;" stroke="none" class="er__entity-label" transform="matrix(1,0,0,1,7.5,90.5)">VARCHAR</text><path opacity="1" stroke-width="1" stroke-opacity="1" fill-opacity="1" d="M 254,554.5 l 64,0 l 0,25 l-64 0 z" fill="#fffbf9" stroke="#3b4044"/><text alignment-baseline="central" text-anchor="left" opacity="1" stroke-width="1" stroke-opacity="1" fill-opacity="1" x="190" y="476.5" font-size="11.9" font-family="Source Code Pro, sans-serif" font-style="normal" font-weight="normal" font-variant="normal" width="49.98" height="10" fill="#3b4044" id="entity-Language-attr-3-name" paint-order="stroke" style="stroke-linecap:butt; stroke-linejoin:miter;" stroke="none" class="er__entity-label" transform="matrix(1,0,0,1,71.5,90.5)">ISOCode</text></g></g></g><g opacity="1"/></g></svg>