<svg xmlns="http://www.w3.org/2000/svg" width="490" height="260" style="width: 490px; height: 260px;"><defs id="defs_114"/><path opacity="1" stroke-width="1" stroke-opacity="1" fill-opacity="1" d="M 0,0 l 490,0 l 0,260 l-490 0 z" fill="#fff" stroke="none"/><g opacity="1" transform="matrix(1,0,0,1,15,15)"><g opacity="1" class="er__relations"/><g opacity="1" class="er__entity"><path opacity="1" stroke-width="1" stroke-opacity="1" fill-opacity="1" d="M 2,0 l 204,0 a 2,2,0,0,1,2,2 l 0,226 a 2,2,0,0,1,-2,2 l -204,0 a 2,2,0,0,1,-2,-2 l 0,-226 a 2,2,0,0,1,2,-2 z" fill="#fdb05e" stroke="#3b4044" class="er__entity-box"/><text alignment-baseline="central" text-anchor="middle" opacity="1" stroke-width="1" stroke-opacity="1" fill-opacity="1" x="0" y="0" font-size="14" font-family="Source Code Pro, sans-serif" font-style="normal" font-weight="bold" font-variant="normal" fill="#3b4044" width="50.4" height="11" id="entity-Module" paint-order="stroke" style="stroke-linecap:butt; stroke-linejoin:miter;" stroke="none" class="er__entity-label" transform="matrix(1,0,0,1,104,13)">Module</text><g opacity="1"><g opacity="1"><path opacity="1" stroke-width="1" stroke-opacity="1" fill-opacity="1" d="M 0,26 l 29,0 l 0,25 l-29 0 z" fill="#fffbf9" stroke="#3b4044"/><text alignment-baseline="central" text-anchor="left" opacity="1" stroke-width="1" stroke-opacity="1" fill-opacity="1" x="0" y="0" font-size="11.9" font-family="Source Code Pro, sans-serif" font-style="normal" font-weight="normal" font-variant="normal" width="14.28" height="8" fill="#3b4044" id="entity-Module-attr-1-key" paint-order="stroke" style="stroke-linecap:butt; stroke-linejoin:miter;" stroke="none" class="er__entity-label" transform="matrix(1,0,0,1,7.5,38.5)">PK</text><path opacity="1" stroke-width="1" stroke-opacity="1" fill-opacity="1" d="M 29,26 l 36,0 l 0,25 l-36 0 z" fill="#fffbf9" stroke="#3b4044"/><text alignment-baseline="central" text-anchor="left" opacity="1" stroke-width="1" stroke-opacity="1" fill-opacity="1" x="0" y="0" font-size="11.9" font-family="Source Code Pro, sans-serif" font-style="normal" font-weight="normal" font-variant="normal" width="21.42" height="8" fill="#3b4044" id="entity-Module-attr-1-type" paint-order="stroke" style="stroke-linecap:butt; stroke-linejoin:miter;" stroke="none" class="er__entity-label" transform="matrix(1,0,0,1,36.5,38.5)">INT</text><path opacity="1" stroke-width="1" stroke-opacity="1" fill-opacity="1" d="M 65,26 l 143,0 l 0,25 l-143 0 z" fill="#fffbf9" stroke="#3b4044"/><text alignment-baseline="central" text-anchor="left" opacity="1" stroke-width="1" stroke-opacity="1" fill-opacity="1" x="0" y="0" font-size="11.9" font-family="Source Code Pro, sans-serif" font-style="normal" font-weight="normal" font-variant="normal" width="14.28" height="10" fill="#3b4044" id="entity-Module-attr-1-name" paint-order="stroke" style="stroke-linecap:butt; stroke-linejoin:miter;" stroke="none" class="er__entity-label" transform="matrix(1,0,0,1,72.5,38.5)">id</text></g><g opacity="1"><path opacity="1" stroke-width="1" stroke-opacity="1" fill-opacity="1" d="M 0,51 l 29,0 l 0,25 l-29 0 z" fill="#fffbf9" stroke="#3b4044"/><path opacity="1" stroke-width="1" stroke-opacity="1" fill-opacity="1" d="M 29,51 l 36,0 l 0,25 l-36 0 z" fill="#fffbf9" stroke="#3b4044"/><text alignment-baseline="central" text-anchor="left" opacity="1" stroke-width="1" stroke-opacity="1" fill-opacity="1" x="0" y="0" font-size="11.9" font-family="Source Code Pro, sans-serif" font-style="normal" font-weight="normal" font-variant="normal" width="21.42" height="8" fill="#3b4044" id="entity-Module-attr-2-type" paint-order="stroke" style="stroke-linecap:butt; stroke-linejoin:miter;" stroke="none" class="er__entity-label" transform="matrix(1,0,0,1,36.5,63.5)">INT</text><path opacity="1" stroke-width="1" stroke-opacity="1" fill-opacity="1" d="M 65,51 l 143,0 l 0,25 l-143 0 z" fill="#fffbf9" stroke="#3b4044"/><text alignment-baseline="central" text-anchor="left" opacity="1" stroke-width="1" stroke-opacity="1" fill-opacity="1" x="0" y="0" font-size="11.9" font-family="Source Code Pro, sans-serif" font-style="normal" font-weight="normal" font-variant="normal" width="49.98" height="10" fill="#3b4044" id="entity-Module-attr-2-name" paint-order="stroke" style="stroke-linecap:butt; stroke-linejoin:miter;" stroke="none" class="er__entity-label" transform="matrix(1,0,0,1,72.5,63.5)">credits</text></g><g opacity="1"><path opacity="1" stroke-width="1" stroke-opacity="1" fill-opacity="1" d="M 0,76 l 29,0 l 0,25 l-29 0 z" fill="#fffbf9" stroke="#3b4044"/><path opacity="1" stroke-width="1" stroke-opacity="1" fill-opacity="1" d="M 29,76 l 36,0 l 0,25 l-36 0 z" fill="#fffbf9" stroke="#3b4044"/><text alignment-baseline="central" text-anchor="left" opacity="1" stroke-width="1" stroke-opacity="1" fill-opacity="1" x="0" y="0" font-size="11.9" font-family="Source Code Pro, sans-serif" font-style="normal" font-weight="normal" font-variant="normal" width="21.42" height="8" fill="#3b4044" id="entity-Module-attr-3-type" paint-order="stroke" style="stroke-linecap:butt; stroke-linejoin:miter;" stroke="none" class="er__entity-label" transform="matrix(1,0,0,1,36.5,88.5)">INT</text><path opacity="1" stroke-width="1" stroke-opacity="1" fill-opacity="1" d="M 65,76 l 143,0 l 0,25 l-143 0 z" fill="#fffbf9" stroke="#3b4044"/><text alignment-baseline="central" text-anchor="left" opacity="1" stroke-width="1" stroke-opacity="1" fill-opacity="1" x="0" y="0" font-size="11.9" font-family="Source Code Pro, sans-serif" font-style="normal" font-weight="normal" font-variant="normal" width="92.82" height="10" fill="#3b4044" id="entity-Module-attr-3-name" paint-order="stroke" style="stroke-linecap:butt; stroke-linejoin:miter;" stroke="none" class="er__entity-label" transform="matrix(1,0,0,1,72.5,88.5)">hoursPresence</text></g><g opacity="1"><path opacity="1" stroke-width="1" stroke-opacity="1" fill-opacity="1" d="M 0,101 l 29,0 l 0,25 l-29 0 z" fill="#fffbf9" stroke="#3b4044"/><path opacity="1" stroke-width="1" stroke-opacity="1" fill-opacity="1" d="M 29,101 l 36,0 l 0,25 l-36 0 z" fill="#fffbf9" stroke="#3b4044"/><text alignment-baseline="central" text-anchor="left" opacity="1" stroke-width="1" stroke-opacity="1" fill-opacity="1" x="0" y="0" font-size="11.9" font-family="Source Code Pro, sans-serif" font-style="normal" font-weight="normal" font-variant="normal" width="21.42" height="8" fill="#3b4044" id="entity-Module-attr-4-type" paint-order="stroke" style="stroke-linecap:butt; stroke-linejoin:miter;" stroke="none" class="er__entity-label" transform="matrix(1,0,0,1,36.5,113.5)">INT</text><path opacity="1" stroke-width="1" stroke-opacity="1" fill-opacity="1" d="M 65,101 l 143,0 l 0,25 l-143 0 z" fill="#fffbf9" stroke="#3b4044"/><text alignment-baseline="central" text-anchor="left" opacity="1" stroke-width="1" stroke-opacity="1" fill-opacity="1" x="0" y="0" font-size="11.9" font-family="Source Code Pro, sans-serif" font-style="normal" font-weight="normal" font-variant="normal" width="42.84" height="10" fill="#3b4044" id="entity-Module-attr-4-name" paint-order="stroke" style="stroke-linecap:butt; stroke-linejoin:miter;" stroke="none" class="er__entity-label" transform="matrix(1,0,0,1,72.5,113.5)">nameId</text></g><g opacity="1"><path opacity="1" stroke-width="1" stroke-opacity="1" fill-opacity="1" d="M 0,126 l 29,0 l 0,25 l-29 0 z" fill="#fffbf9" stroke="#3b4044"/><path opacity="1" stroke-width="1" stroke-opacity="1" fill-opacity="1" d="M 29,126 l 36,0 l 0,25 l-36 0 z" fill="#fffbf9" stroke="#3b4044"/><text alignment-baseline="central" text-anchor="left" opacity="1" stroke-width="1" stroke-opacity="1" fill-opacity="1" x="0" y="0" font-size="11.9" font-family="Source Code Pro, sans-serif" font-style="normal" font-weight="normal" font-variant="normal" width="21.42" height="8" fill="#3b4044" id="entity-Module-attr-5-type" paint-order="stroke" style="stroke-linecap:butt; stroke-linejoin:miter;" stroke="none" class="er__entity-label" transform="matrix(1,0,0,1,36.5,138.5)">INT</text><path opacity="1" stroke-width="1" stroke-opacity="1" fill-opacity="1" d="M 65,126 l 143,0 l 0,25 l-143 0 z" fill="#fffbf9" stroke="#3b4044"/><text alignment-baseline="central" text-anchor="left" opacity="1" stroke-width="1" stroke-opacity="1" fill-opacity="1" x="0" y="0" font-size="11.9" font-family="Source Code Pro, sans-serif" font-style="normal" font-weight="normal" font-variant="normal" width="71.4" height="10" fill="#3b4044" id="entity-Module-attr-5-name" paint-order="stroke" style="stroke-linecap:butt; stroke-linejoin:miter;" stroke="none" class="er__entity-label" transform="matrix(1,0,0,1,72.5,138.5)">subTitleId</text></g><g opacity="1"><path opacity="1" stroke-width="1" stroke-opacity="1" fill-opacity="1" d="M 0,151 l 29,0 l 0,27 l-29 0 z" fill="#fffbf9" stroke="#3b4044"/><path opacity="1" stroke-width="1" stroke-opacity="1" fill-opacity="1" d="M 29,151 l 36,0 l 0,27 l-36 0 z" fill="#fffbf9" stroke="#3b4044"/><text alignment-baseline="central" text-anchor="left" opacity="1" stroke-width="1" stroke-opacity="1" fill-opacity="1" x="0" y="0" font-size="11.9" font-family="Source Code Pro, sans-serif" font-style="normal" font-weight="normal" font-variant="normal" width="21.42" height="8" fill="#3b4044" id="entity-Module-attr-6-type" paint-order="stroke" style="stroke-linecap:butt; stroke-linejoin:miter;" stroke="none" class="er__entity-label" transform="matrix(1,0,0,1,36.5,164.5)">INT</text><path opacity="1" stroke-width="1" stroke-opacity="1" fill-opacity="1" d="M 65,151 l 143,0 l 0,27 l-143 0 z" fill="#fffbf9" stroke="#3b4044"/><text alignment-baseline="central" text-anchor="left" opacity="1" stroke-width="1" stroke-opacity="1" fill-opacity="1" x="0" y="0" font-size="11.9" font-family="Source Code Pro, sans-serif" font-style="normal" font-weight="normal" font-variant="normal" width="92.82" height="12" fill="#3b4044" id="entity-Module-attr-6-name" paint-order="stroke" style="stroke-linecap:butt; stroke-linejoin:miter;" stroke="none" class="er__entity-label" transform="matrix(1,0,0,1,72.5,164.5)">descriptionId</text></g><g opacity="1"><path opacity="1" stroke-width="1" stroke-opacity="1" fill-opacity="1" d="M 0,178 l 29,0 l 0,25 l-29 0 z" fill="#fffbf9" stroke="#3b4044"/><path opacity="1" stroke-width="1" stroke-opacity="1" fill-opacity="1" d="M 29,178 l 36,0 l 0,25 l-36 0 z" fill="#fffbf9" stroke="#3b4044"/><text alignment-baseline="central" text-anchor="left" opacity="1" stroke-width="1" stroke-opacity="1" fill-opacity="1" x="0" y="0" font-size="11.9" font-family="Source Code Pro, sans-serif" font-style="normal" font-weight="normal" font-variant="normal" width="21.42" height="8" fill="#3b4044" id="entity-Module-attr-7-type" paint-order="stroke" style="stroke-linecap:butt; stroke-linejoin:miter;" stroke="none" class="er__entity-label" transform="matrix(1,0,0,1,36.5,190.5)">INT</text><path opacity="1" stroke-width="1" stroke-opacity="1" fill-opacity="1" d="M 65,178 l 143,0 l 0,25 l-143 0 z" fill="#fffbf9" stroke="#3b4044"/><text alignment-baseline="central" text-anchor="left" opacity="1" stroke-width="1" stroke-opacity="1" fill-opacity="1" x="0" y="0" font-size="11.9" font-family="Source Code Pro, sans-serif" font-style="normal" font-weight="normal" font-variant="normal" width="42.84" height="10" fill="#3b4044" id="entity-Module-attr-7-name" paint-order="stroke" style="stroke-linecap:butt; stroke-linejoin:miter;" stroke="none" class="er__entity-label" transform="matrix(1,0,0,1,72.5,190.5)">examId</text></g><g opacity="1"><path opacity="1" stroke-width="1" stroke-opacity="1" fill-opacity="1" d="M 0,203 l 29,0 l 0,27 l-29 0 z" fill="#fffbf9" stroke="#3b4044"/><path opacity="1" stroke-width="1" stroke-opacity="1" fill-opacity="1" d="M 29,203 l 36,0 l 0,27 l-36 0 z" fill="#fffbf9" stroke="#3b4044"/><text alignment-baseline="central" text-anchor="left" opacity="1" stroke-width="1" stroke-opacity="1" fill-opacity="1" x="0" y="0" font-size="11.9" font-family="Source Code Pro, sans-serif" font-style="normal" font-weight="normal" font-variant="normal" width="21.42" height="8" fill="#3b4044" id="entity-Module-attr-8-type" paint-order="stroke" style="stroke-linecap:butt; stroke-linejoin:miter;" stroke="none" class="er__entity-label" transform="matrix(1,0,0,1,36.5,216.5)">INT</text><path opacity="1" stroke-width="1" stroke-opacity="1" fill-opacity="1" d="M 65,203 l 143,0 l 0,27 l-143 0 z" fill="#fffbf9" stroke="#3b4044"/><text alignment-baseline="central" text-anchor="left" opacity="1" stroke-width="1" stroke-opacity="1" fill-opacity="1" x="0" y="0" font-size="11.9" font-family="Source Code Pro, sans-serif" font-style="normal" font-weight="normal" font-variant="normal" width="128.52" height="12" fill="#3b4044" id="entity-Module-attr-8-name" paint-order="stroke" style="stroke-linecap:butt; stroke-linejoin:miter;" stroke="none" class="er__entity-label" transform="matrix(1,0,0,1,72.5,216.5)">learningOutcomesId</text></g></g></g><g opacity="1" class="er__entity"><path opacity="1" stroke-width="1" stroke-opacity="1" fill-opacity="1" d="M 290,50.5 l 168,0 a 2,2,0,0,1,2,2 l 0,125 a 2,2,0,0,1,-2,2 l -168,0 a 2,2,0,0,1,-2,-2 l 0,-125 a 2,2,0,0,1,2,-2 z" fill="#fdb05e" stroke="#3b4044" class="er__entity-box"/><text alignment-baseline="central" text-anchor="middle" opacity="1" stroke-width="1" stroke-opacity="1" fill-opacity="1" x="288" y="50.5" font-size="14" font-family="Source Code Pro, sans-serif" font-style="normal" font-weight="bold" font-variant="normal" fill="#3b4044" width="92.4" height="11" id="entity-Translation" paint-order="stroke" style="stroke-linecap:butt; stroke-linejoin:miter;" stroke="none" class="er__entity-label" transform="matrix(1,0,0,1,86,13)">Translation</text><g opacity="1"><g opacity="1"><path opacity="1" stroke-width="1" stroke-opacity="1" fill-opacity="1" d="M 288,76.5 l 29,0 l 0,25 l-29 0 z" fill="#fffbf9" stroke="#3b4044"/><text alignment-baseline="central" text-anchor="left" opacity="1" stroke-width="1" stroke-opacity="1" fill-opacity="1" x="288" y="50.5" font-size="11.9" font-family="Source Code Pro, sans-serif" font-style="normal" font-weight="normal" font-variant="normal" width="14.28" height="8" fill="#3b4044" id="entity-Translation-attr-1-key" paint-order="stroke" style="stroke-linecap:butt; stroke-linejoin:miter;" stroke="none" class="er__entity-label" transform="matrix(1,0,0,1,7.5,38.5)">PK</text><path opacity="1" stroke-width="1" stroke-opacity="1" fill-opacity="1" d="M 317,76.5 l 57,0 l 0,25 l-57 0 z" fill="#fffbf9" stroke="#3b4044"/><text alignment-baseline="central" text-anchor="left" opacity="1" stroke-width="1" stroke-opacity="1" fill-opacity="1" x="288" y="50.5" font-size="11.9" font-family="Source Code Pro, sans-serif" font-style="normal" font-weight="normal" font-variant="normal" width="21.42" height="8" fill="#3b4044" id="entity-Translation-attr-1-type" paint-order="stroke" style="stroke-linecap:butt; stroke-linejoin:miter;" stroke="none" class="er__entity-label" transform="matrix(1,0,0,1,36.5,38.5)">INT</text><path opacity="1" stroke-width="1" stroke-opacity="1" fill-opacity="1" d="M 374,76.5 l 86,0 l 0,25 l-86 0 z" fill="#fffbf9" stroke="#3b4044"/><text alignment-baseline="central" text-anchor="left" opacity="1" stroke-width="1" stroke-opacity="1" fill-opacity="1" x="288" y="50.5" font-size="11.9" font-family="Source Code Pro, sans-serif" font-style="normal" font-weight="normal" font-variant="normal" width="14.28" height="10" fill="#3b4044" id="entity-Translation-attr-1-name" paint-order="stroke" style="stroke-linecap:butt; stroke-linejoin:miter;" stroke="none" class="er__entity-label" transform="matrix(1,0,0,1,93.5,38.5)">id</text></g><g opacity="1"><path opacity="1" stroke-width="1" stroke-opacity="1" fill-opacity="1" d="M 288,101.5 l 29,0 l 0,24 l-29 0 z" fill="#fffbf9" stroke="#3b4044"/><path opacity="1" stroke-width="1" stroke-opacity="1" fill-opacity="1" d="M 317,101.5 l 57,0 l 0,24 l-57 0 z" fill="#fffbf9" stroke="#3b4044"/><text alignment-baseline="central" text-anchor="left" opacity="1" stroke-width="1" stroke-opacity="1" fill-opacity="1" x="288" y="50.5" font-size="11.9" font-family="Source Code Pro, sans-serif" font-style="normal" font-weight="normal" font-variant="normal" width="42.84" height="9" fill="#3b4044" id="entity-Translation-attr-2-type" paint-order="stroke" style="stroke-linecap:butt; stroke-linejoin:miter;" stroke="none" class="er__entity-label" transform="matrix(1,0,0,1,36.5,63)">STRING</text><path opacity="1" stroke-width="1" stroke-opacity="1" fill-opacity="1" d="M 374,101.5 l 86,0 l 0,24 l-86 0 z" fill="#fffbf9" stroke="#3b4044"/><text alignment-baseline="central" text-anchor="left" opacity="1" stroke-width="1" stroke-opacity="1" fill-opacity="1" x="288" y="50.5" font-size="11.9" font-family="Source Code Pro, sans-serif" font-style="normal" font-weight="normal" font-variant="normal" width="42.84" height="9" fill="#3b4044" id="entity-Translation-attr-2-name" paint-order="stroke" style="stroke-linecap:butt; stroke-linejoin:miter;" stroke="none" class="er__entity-label" transform="matrix(1,0,0,1,93.5,63)">German</text></g><g opacity="1"><path opacity="1" stroke-width="1" stroke-opacity="1" fill-opacity="1" d="M 288,125.5 l 29,0 l 0,27 l-29 0 z" fill="#fffbf9" stroke="#3b4044"/><path opacity="1" stroke-width="1" stroke-opacity="1" fill-opacity="1" d="M 317,125.5 l 57,0 l 0,27 l-57 0 z" fill="#fffbf9" stroke="#3b4044"/><text alignment-baseline="central" text-anchor="left" opacity="1" stroke-width="1" stroke-opacity="1" fill-opacity="1" x="288" y="50.5" font-size="11.9" font-family="Source Code Pro, sans-serif" font-style="normal" font-weight="normal" font-variant="normal" width="42.84" height="9" fill="#3b4044" id="entity-Translation-attr-3-type" paint-order="stroke" style="stroke-linecap:butt; stroke-linejoin:miter;" stroke="none" class="er__entity-label" transform="matrix(1,0,0,1,36.5,88.5)">STRING</text><path opacity="1" stroke-width="1" stroke-opacity="1" fill-opacity="1" d="M 374,125.5 l 86,0 l 0,27 l-86 0 z" fill="#fffbf9" stroke="#3b4044"/><text alignment-baseline="central" text-anchor="left" opacity="1" stroke-width="1" stroke-opacity="1" fill-opacity="1" x="288" y="50.5" font-size="11.9" font-family="Source Code Pro, sans-serif" font-style="normal" font-weight="normal" font-variant="normal" width="49.98" height="12" fill="#3b4044" id="entity-Translation-attr-3-name" paint-order="stroke" style="stroke-linecap:butt; stroke-linejoin:miter;" stroke="none" class="er__entity-label" transform="matrix(1,0,0,1,93.5,88.5)">English</text></g><g opacity="1"><path opacity="1" stroke-width="1" stroke-opacity="1" fill-opacity="1" d="M 288,152.5 l 29,0 l 0,27 l-29 0 z" fill="#fffbf9" stroke="#3b4044"/><text alignment-baseline="central" text-anchor="left" opacity="1" stroke-width="1" stroke-opacity="1" fill-opacity="1" x="288" y="50.5" font-size="11.9" font-family="Source Code Pro, sans-serif" font-style="normal" font-weight="normal" font-variant="normal" width="14.28" height="8" fill="#3b4044" id="entity-Translation-attr-4-key" paint-order="stroke" style="stroke-linecap:butt; stroke-linejoin:miter;" stroke="none" class="er__entity-label" transform="matrix(1,0,0,1,7.5,115.5)">FK</text><path opacity="1" stroke-width="1" stroke-opacity="1" fill-opacity="1" d="M 317,152.5 l 57,0 l 0,27 l-57 0 z" fill="#fffbf9" stroke="#3b4044"/><text alignment-baseline="central" text-anchor="left" opacity="1" stroke-width="1" stroke-opacity="1" fill-opacity="1" x="288" y="50.5" font-size="11.9" font-family="Source Code Pro, sans-serif" font-style="normal" font-weight="normal" font-variant="normal" width="21.42" height="8" fill="#3b4044" id="entity-Translation-attr-4-type" paint-order="stroke" style="stroke-linecap:butt; stroke-linejoin:miter;" stroke="none" class="er__entity-label" transform="matrix(1,0,0,1,36.5,115.5)">INT</text><path opacity="1" stroke-width="1" stroke-opacity="1" fill-opacity="1" d="M 374,152.5 l 86,0 l 0,27 l-86 0 z" fill="#fffbf9" stroke="#3b4044"/><text alignment-baseline="central" text-anchor="left" opacity="1" stroke-width="1" stroke-opacity="1" fill-opacity="1" x="288" y="50.5" font-size="11.9" font-family="Source Code Pro, sans-serif" font-style="normal" font-weight="normal" font-variant="normal" width="71.4" height="12" fill="#3b4044" id="entity-Translation-attr-4-name" paint-order="stroke" style="stroke-linecap:butt; stroke-linejoin:miter;" stroke="none" class="er__entity-label" transform="matrix(1,0,0,1,93.5,115.5)">languageId</text></g></g></g><g opacity="1"/></g></svg>