<svg xmlns="http://www.w3.org/2000/svg" width="245" height="462" style="width: 245px; height: 462px;"><defs id="defs_113"/><path opacity="1" stroke-width="1" stroke-opacity="1" fill-opacity="1" d="M 0,0 l 245,0 l 0,462 l-245 0 z" fill="#fff" stroke="none"/><g opacity="1" transform="matrix(1,0,0,1,15,15)"><g opacity="1" class="er__relations"><path opacity="1" stroke-width="1" stroke-opacity="1" fill-opacity="1" d="M 107.5 101L 107.5 151L 107.5 201" stroke="#3b4044" stroke-linejoin="round" fill="none"/><path opacity="0.85" stroke-width="1" stroke-opacity="1" fill-opacity="1" d="M 53.6,142 l 107.8,0 l 0,20 l-107.8 0 z" fill="#fff" id="#rel14367" stroke="none" class="label-bg"/><text alignment-baseline="central" text-anchor="middle" opacity="1" stroke-width="1" stroke-opacity="1" fill-opacity="1" x="107.5" y="151" font-size="14" font-family="Source Code Pro, sans-serif" font-style="normal" font-weight="400" font-variant="normal" id="rel14367" fill="#3b4044" paint-order="stroke" style="stroke-linecap:butt; stroke-linejoin:miter;" stroke="none" class="er__relationship-label">translations</text><path opacity="1" stroke-width="1" stroke-opacity="1" fill-opacity="1" d="M9,-9 L9,9 M15,-9 L15,9" stroke="#3b4044" id="ModuletranslationsModule_Translation-start" fill="none" class="er-marker er-marker--only-one" transform="matrix(6.123234262925839e-17,1,-1,6.123234262925839e-17,107.5,101)"/><g opacity="1" class="er-marker er-marker--zero-or-more" transform="matrix(6.123234262925839e-17,-1,1,6.123234262925839e-17,107.5,201)"><circle opacity="1" stroke-width="1" stroke-opacity="1" fill-opacity="1" cx="28" cy="0" r="6" stroke="#3b4044" id="ModuletranslationsModule_Translation-end" fill="#fff"/><path opacity="1" stroke-width="1" stroke-opacity="1" fill-opacity="1" stroke="#3b4044" id="ModuletranslationsModule_Translation-end" d="M-18,0 Q 0,18 18,0 Q 0,-18 -18,0" fill="none"/></g></g><g opacity="1" class="er__entity"><path opacity="1" stroke-width="1" stroke-opacity="1" fill-opacity="1" d="M 23,-0.5 l 168,0 a 2,2,0,0,1,2,2 l 0,97 a 2,2,0,0,1,-2,2 l -168,0 a 2,2,0,0,1,-2,-2 l 0,-97 a 2,2,0,0,1,2,-2 z" fill="#fdb05e" stroke="#3b4044" class="er__entity-box"/><text alignment-baseline="central" text-anchor="middle" opacity="1" stroke-width="1" stroke-opacity="1" fill-opacity="1" x="21" y="-0.5" font-size="14" font-family="Source Code Pro, sans-serif" font-style="normal" font-weight="bold" font-variant="normal" fill="#3b4044" width="50.4" height="11" id="entity-Module" paint-order="stroke" style="stroke-linecap:butt; stroke-linejoin:miter;" stroke="none" class="er__entity-label" transform="matrix(1,0,0,1,86,13)">Module</text><g opacity="1"><g opacity="1"><path opacity="1" stroke-width="1" stroke-opacity="1" fill-opacity="1" d="M 21,25.5 l 29,0 l 0,25 l-29 0 z" fill="#fffbf9" stroke="#3b4044"/><text alignment-baseline="central" text-anchor="left" opacity="1" stroke-width="1" stroke-opacity="1" fill-opacity="1" x="21" y="-0.5" font-size="11.9" font-family="Source Code Pro, sans-serif" font-style="normal" font-weight="normal" font-variant="normal" width="14.28" height="8" fill="#3b4044" id="entity-Module-attr-1-key" paint-order="stroke" style="stroke-linecap:butt; stroke-linejoin:miter;" stroke="none" class="er__entity-label" transform="matrix(1,0,0,1,7.5,38.5)">PK</text><path opacity="1" stroke-width="1" stroke-opacity="1" fill-opacity="1" d="M 50,25.5 l 36,0 l 0,25 l-36 0 z" fill="#fffbf9" stroke="#3b4044"/><text alignment-baseline="central" text-anchor="left" opacity="1" stroke-width="1" stroke-opacity="1" fill-opacity="1" x="21" y="-0.5" font-size="11.9" font-family="Source Code Pro, sans-serif" font-style="normal" font-weight="normal" font-variant="normal" width="21.42" height="8" fill="#3b4044" id="entity-Module-attr-1-type" paint-order="stroke" style="stroke-linecap:butt; stroke-linejoin:miter;" stroke="none" class="er__entity-label" transform="matrix(1,0,0,1,36.5,38.5)">INT</text><path opacity="1" stroke-width="1" stroke-opacity="1" fill-opacity="1" d="M 86,25.5 l 107,0 l 0,25 l-107 0 z" fill="#fffbf9" stroke="#3b4044"/><text alignment-baseline="central" text-anchor="left" opacity="1" stroke-width="1" stroke-opacity="1" fill-opacity="1" x="21" y="-0.5" font-size="11.9" font-family="Source Code Pro, sans-serif" font-style="normal" font-weight="normal" font-variant="normal" width="14.28" height="10" fill="#3b4044" id="entity-Module-attr-1-name" paint-order="stroke" style="stroke-linecap:butt; stroke-linejoin:miter;" stroke="none" class="er__entity-label" transform="matrix(1,0,0,1,72.5,38.5)">id</text></g><g opacity="1"><path opacity="1" stroke-width="1" stroke-opacity="1" fill-opacity="1" d="M 21,50.5 l 29,0 l 0,25 l-29 0 z" fill="#fffbf9" stroke="#3b4044"/><path opacity="1" stroke-width="1" stroke-opacity="1" fill-opacity="1" d="M 50,50.5 l 36,0 l 0,25 l-36 0 z" fill="#fffbf9" stroke="#3b4044"/><text alignment-baseline="central" text-anchor="left" opacity="1" stroke-width="1" stroke-opacity="1" fill-opacity="1" x="21" y="-0.5" font-size="11.9" font-family="Source Code Pro, sans-serif" font-style="normal" font-weight="normal" font-variant="normal" width="21.42" height="8" fill="#3b4044" id="entity-Module-attr-2-type" paint-order="stroke" style="stroke-linecap:butt; stroke-linejoin:miter;" stroke="none" class="er__entity-label" transform="matrix(1,0,0,1,36.5,63.5)">INT</text><path opacity="1" stroke-width="1" stroke-opacity="1" fill-opacity="1" d="M 86,50.5 l 107,0 l 0,25 l-107 0 z" fill="#fffbf9" stroke="#3b4044"/><text alignment-baseline="central" text-anchor="left" opacity="1" stroke-width="1" stroke-opacity="1" fill-opacity="1" x="21" y="-0.5" font-size="11.9" font-family="Source Code Pro, sans-serif" font-style="normal" font-weight="normal" font-variant="normal" width="49.98" height="10" fill="#3b4044" id="entity-Module-attr-2-name" paint-order="stroke" style="stroke-linecap:butt; stroke-linejoin:miter;" stroke="none" class="er__entity-label" transform="matrix(1,0,0,1,72.5,63.5)">credits</text></g><g opacity="1"><path opacity="1" stroke-width="1" stroke-opacity="1" fill-opacity="1" d="M 21,75.5 l 29,0 l 0,25 l-29 0 z" fill="#fffbf9" stroke="#3b4044"/><path opacity="1" stroke-width="1" stroke-opacity="1" fill-opacity="1" d="M 50,75.5 l 36,0 l 0,25 l-36 0 z" fill="#fffbf9" stroke="#3b4044"/><text alignment-baseline="central" text-anchor="left" opacity="1" stroke-width="1" stroke-opacity="1" fill-opacity="1" x="21" y="-0.5" font-size="11.9" font-family="Source Code Pro, sans-serif" font-style="normal" font-weight="normal" font-variant="normal" width="21.42" height="8" fill="#3b4044" id="entity-Module-attr-3-type" paint-order="stroke" style="stroke-linecap:butt; stroke-linejoin:miter;" stroke="none" class="er__entity-label" transform="matrix(1,0,0,1,36.5,88.5)">INT</text><path opacity="1" stroke-width="1" stroke-opacity="1" fill-opacity="1" d="M 86,75.5 l 107,0 l 0,25 l-107 0 z" fill="#fffbf9" stroke="#3b4044"/><text alignment-baseline="central" text-anchor="left" opacity="1" stroke-width="1" stroke-opacity="1" fill-opacity="1" x="21" y="-0.5" font-size="11.9" font-family="Source Code Pro, sans-serif" font-style="normal" font-weight="normal" font-variant="normal" width="92.82" height="10" fill="#3b4044" id="entity-Module-attr-3-name" paint-order="stroke" style="stroke-linecap:butt; stroke-linejoin:miter;" stroke="none" class="er__entity-label" transform="matrix(1,0,0,1,72.5,88.5)">hoursPresence</text></g></g></g><g opacity="1" class="er__entity"><path opacity="1" stroke-width="1" stroke-opacity="1" fill-opacity="1" d="M 1.5,200.5 l 211,0 a 2,2,0,0,1,2,2 l 0,227 a 2,2,0,0,1,-2,2 l -211,0 a 2,2,0,0,1,-2,-2 l 0,-227 a 2,2,0,0,1,2,-2 z" fill="#fdb05e" stroke="#3b4044" class="er__entity-box"/><text alignment-baseline="central" text-anchor="middle" opacity="1" stroke-width="1" stroke-opacity="1" fill-opacity="1" x="-0.5" y="200.5" font-size="14" font-family="Source Code Pro, sans-serif" font-style="normal" font-weight="bold" font-variant="normal" fill="#3b4044" width="151.2" height="12" id="entity-Module_Translation" paint-order="stroke" style="stroke-linecap:butt; stroke-linejoin:miter;" stroke="none" class="er__entity-label" transform="matrix(1,0,0,1,107.5,13.5)">Module_Translation</text><g opacity="1"><g opacity="1"><path opacity="1" stroke-width="1" stroke-opacity="1" fill-opacity="1" d="M -0.5,227.5 l 29,0 l 0,25 l-29 0 z" fill="#fffbf9" stroke="#3b4044"/><text alignment-baseline="central" text-anchor="left" opacity="1" stroke-width="1" stroke-opacity="1" fill-opacity="1" x="-0.5" y="200.5" font-size="11.9" font-family="Source Code Pro, sans-serif" font-style="normal" font-weight="normal" font-variant="normal" width="14.28" height="8" fill="#3b4044" id="entity-Module_Translation-attr-1-key" paint-order="stroke" style="stroke-linecap:butt; stroke-linejoin:miter;" stroke="none" class="er__entity-label" transform="matrix(1,0,0,1,7.5,39.5)">PK</text><path opacity="1" stroke-width="1" stroke-opacity="1" fill-opacity="1" d="M 28.5,227.5 l 57,0 l 0,25 l-57 0 z" fill="#fffbf9" stroke="#3b4044"/><text alignment-baseline="central" text-anchor="left" opacity="1" stroke-width="1" stroke-opacity="1" fill-opacity="1" x="-0.5" y="200.5" font-size="11.9" font-family="Source Code Pro, sans-serif" font-style="normal" font-weight="normal" font-variant="normal" width="21.42" height="8" fill="#3b4044" id="entity-Module_Translation-attr-1-type" paint-order="stroke" style="stroke-linecap:butt; stroke-linejoin:miter;" stroke="none" class="er__entity-label" transform="matrix(1,0,0,1,36.5,39.5)">INT</text><path opacity="1" stroke-width="1" stroke-opacity="1" fill-opacity="1" d="M 85.5,227.5 l 129,0 l 0,25 l-129 0 z" fill="#fffbf9" stroke="#3b4044"/><text alignment-baseline="central" text-anchor="left" opacity="1" stroke-width="1" stroke-opacity="1" fill-opacity="1" x="-0.5" y="200.5" font-size="11.9" font-family="Source Code Pro, sans-serif" font-style="normal" font-weight="normal" font-variant="normal" width="14.28" height="10" fill="#3b4044" id="entity-Module_Translation-attr-1-name" paint-order="stroke" style="stroke-linecap:butt; stroke-linejoin:miter;" stroke="none" class="er__entity-label" transform="matrix(1,0,0,1,93.5,39.5)">id</text></g><g opacity="1"><path opacity="1" stroke-width="1" stroke-opacity="1" fill-opacity="1" d="M -0.5,252.5 l 29,0 l 0,24 l-29 0 z" fill="#fffbf9" stroke="#3b4044"/><path opacity="1" stroke-width="1" stroke-opacity="1" fill-opacity="1" d="M 28.5,252.5 l 57,0 l 0,24 l-57 0 z" fill="#fffbf9" stroke="#3b4044"/><text alignment-baseline="central" text-anchor="left" opacity="1" stroke-width="1" stroke-opacity="1" fill-opacity="1" x="-0.5" y="200.5" font-size="11.9" font-family="Source Code Pro, sans-serif" font-style="normal" font-weight="normal" font-variant="normal" width="42.84" height="9" fill="#3b4044" id="entity-Module_Translation-attr-2-type" paint-order="stroke" style="stroke-linecap:butt; stroke-linejoin:miter;" stroke="none" class="er__entity-label" transform="matrix(1,0,0,1,36.5,64)">STRING</text><path opacity="1" stroke-width="1" stroke-opacity="1" fill-opacity="1" d="M 85.5,252.5 l 129,0 l 0,24 l-129 0 z" fill="#fffbf9" stroke="#3b4044"/><text alignment-baseline="central" text-anchor="left" opacity="1" stroke-width="1" stroke-opacity="1" fill-opacity="1" x="-0.5" y="200.5" font-size="11.9" font-family="Source Code Pro, sans-serif" font-style="normal" font-weight="normal" font-variant="normal" width="28.56" height="7" fill="#3b4044" id="entity-Module_Translation-attr-2-name" paint-order="stroke" style="stroke-linecap:butt; stroke-linejoin:miter;" stroke="none" class="er__entity-label" transform="matrix(1,0,0,1,93.5,64)">name</text></g><g opacity="1"><path opacity="1" stroke-width="1" stroke-opacity="1" fill-opacity="1" d="M -0.5,276.5 l 29,0 l 0,25 l-29 0 z" fill="#fffbf9" stroke="#3b4044"/><path opacity="1" stroke-width="1" stroke-opacity="1" fill-opacity="1" d="M 28.5,276.5 l 57,0 l 0,25 l-57 0 z" fill="#fffbf9" stroke="#3b4044"/><text alignment-baseline="central" text-anchor="left" opacity="1" stroke-width="1" stroke-opacity="1" fill-opacity="1" x="-0.5" y="200.5" font-size="11.9" font-family="Source Code Pro, sans-serif" font-style="normal" font-weight="normal" font-variant="normal" width="42.84" height="9" fill="#3b4044" id="entity-Module_Translation-attr-3-type" paint-order="stroke" style="stroke-linecap:butt; stroke-linejoin:miter;" stroke="none" class="er__entity-label" transform="matrix(1,0,0,1,36.5,88.5)">STRING</text><path opacity="1" stroke-width="1" stroke-opacity="1" fill-opacity="1" d="M 85.5,276.5 l 129,0 l 0,25 l-129 0 z" fill="#fffbf9" stroke="#3b4044"/><text alignment-baseline="central" text-anchor="left" opacity="1" stroke-width="1" stroke-opacity="1" fill-opacity="1" x="-0.5" y="200.5" font-size="11.9" font-family="Source Code Pro, sans-serif" font-style="normal" font-weight="normal" font-variant="normal" width="57.12" height="10" fill="#3b4044" id="entity-Module_Translation-attr-3-name" paint-order="stroke" style="stroke-linecap:butt; stroke-linejoin:miter;" stroke="none" class="er__entity-label" transform="matrix(1,0,0,1,93.5,88.5)">subtitle</text></g><g opacity="1"><path opacity="1" stroke-width="1" stroke-opacity="1" fill-opacity="1" d="M -0.5,301.5 l 29,0 l 0,27 l-29 0 z" fill="#fffbf9" stroke="#3b4044"/><path opacity="1" stroke-width="1" stroke-opacity="1" fill-opacity="1" d="M 28.5,301.5 l 57,0 l 0,27 l-57 0 z" fill="#fffbf9" stroke="#3b4044"/><text alignment-baseline="central" text-anchor="left" opacity="1" stroke-width="1" stroke-opacity="1" fill-opacity="1" x="-0.5" y="200.5" font-size="11.9" font-family="Source Code Pro, sans-serif" font-style="normal" font-weight="normal" font-variant="normal" width="42.84" height="9" fill="#3b4044" id="entity-Module_Translation-attr-4-type" paint-order="stroke" style="stroke-linecap:butt; stroke-linejoin:miter;" stroke="none" class="er__entity-label" transform="matrix(1,0,0,1,36.5,114.5)">STRING</text><path opacity="1" stroke-width="1" stroke-opacity="1" fill-opacity="1" d="M 85.5,301.5 l 129,0 l 0,27 l-129 0 z" fill="#fffbf9" stroke="#3b4044"/><text alignment-baseline="central" text-anchor="left" opacity="1" stroke-width="1" stroke-opacity="1" fill-opacity="1" x="-0.5" y="200.5" font-size="11.9" font-family="Source Code Pro, sans-serif" font-style="normal" font-weight="normal" font-variant="normal" width="78.54" height="12" fill="#3b4044" id="entity-Module_Translation-attr-4-name" paint-order="stroke" style="stroke-linecap:butt; stroke-linejoin:miter;" stroke="none" class="er__entity-label" transform="matrix(1,0,0,1,93.5,114.5)">description</text></g><g opacity="1"><path opacity="1" stroke-width="1" stroke-opacity="1" fill-opacity="1" d="M -0.5,328.5 l 29,0 l 0,24 l-29 0 z" fill="#fffbf9" stroke="#3b4044"/><path opacity="1" stroke-width="1" stroke-opacity="1" fill-opacity="1" d="M 28.5,328.5 l 57,0 l 0,24 l-57 0 z" fill="#fffbf9" stroke="#3b4044"/><text alignment-baseline="central" text-anchor="left" opacity="1" stroke-width="1" stroke-opacity="1" fill-opacity="1" x="-0.5" y="200.5" font-size="11.9" font-family="Source Code Pro, sans-serif" font-style="normal" font-weight="normal" font-variant="normal" width="42.84" height="9" fill="#3b4044" id="entity-Module_Translation-attr-5-type" paint-order="stroke" style="stroke-linecap:butt; stroke-linejoin:miter;" stroke="none" class="er__entity-label" transform="matrix(1,0,0,1,36.5,140)">STRING</text><path opacity="1" stroke-width="1" stroke-opacity="1" fill-opacity="1" d="M 85.5,328.5 l 129,0 l 0,24 l-129 0 z" fill="#fffbf9" stroke="#3b4044"/><text alignment-baseline="central" text-anchor="left" opacity="1" stroke-width="1" stroke-opacity="1" fill-opacity="1" x="-0.5" y="200.5" font-size="11.9" font-family="Source Code Pro, sans-serif" font-style="normal" font-weight="normal" font-variant="normal" width="28.56" height="7" fill="#3b4044" id="entity-Module_Translation-attr-5-name" paint-order="stroke" style="stroke-linecap:butt; stroke-linejoin:miter;" stroke="none" class="er__entity-label" transform="matrix(1,0,0,1,93.5,140)">exam</text></g><g opacity="1"><path opacity="1" stroke-width="1" stroke-opacity="1" fill-opacity="1" d="M -0.5,352.5 l 29,0 l 0,27 l-29 0 z" fill="#fffbf9" stroke="#3b4044"/><path opacity="1" stroke-width="1" stroke-opacity="1" fill-opacity="1" d="M 28.5,352.5 l 57,0 l 0,27 l-57 0 z" fill="#fffbf9" stroke="#3b4044"/><text alignment-baseline="central" text-anchor="left" opacity="1" stroke-width="1" stroke-opacity="1" fill-opacity="1" x="-0.5" y="200.5" font-size="11.9" font-family="Source Code Pro, sans-serif" font-style="normal" font-weight="normal" font-variant="normal" width="42.84" height="9" fill="#3b4044" id="entity-Module_Translation-attr-6-type" paint-order="stroke" style="stroke-linecap:butt; stroke-linejoin:miter;" stroke="none" class="er__entity-label" transform="matrix(1,0,0,1,36.5,165.5)">STRING</text><path opacity="1" stroke-width="1" stroke-opacity="1" fill-opacity="1" d="M 85.5,352.5 l 129,0 l 0,27 l-129 0 z" fill="#fffbf9" stroke="#3b4044"/><text alignment-baseline="central" text-anchor="left" opacity="1" stroke-width="1" stroke-opacity="1" fill-opacity="1" x="-0.5" y="200.5" font-size="11.9" font-family="Source Code Pro, sans-serif" font-style="normal" font-weight="normal" font-variant="normal" width="114.24" height="12" fill="#3b4044" id="entity-Module_Translation-attr-6-name" paint-order="stroke" style="stroke-linecap:butt; stroke-linejoin:miter;" stroke="none" class="er__entity-label" transform="matrix(1,0,0,1,93.5,165.5)">learningOutcomes</text></g><g opacity="1"><path opacity="1" stroke-width="1" stroke-opacity="1" fill-opacity="1" d="M -0.5,379.5 l 29,0 l 0,27 l-29 0 z" fill="#fffbf9" stroke="#3b4044"/><text alignment-baseline="central" text-anchor="left" opacity="1" stroke-width="1" stroke-opacity="1" fill-opacity="1" x="-0.5" y="200.5" font-size="11.9" font-family="Source Code Pro, sans-serif" font-style="normal" font-weight="normal" font-variant="normal" width="14.28" height="8" fill="#3b4044" id="entity-Module_Translation-attr-7-key" paint-order="stroke" style="stroke-linecap:butt; stroke-linejoin:miter;" stroke="none" class="er__entity-label" transform="matrix(1,0,0,1,7.5,192.5)">FK</text><path opacity="1" stroke-width="1" stroke-opacity="1" fill-opacity="1" d="M 28.5,379.5 l 57,0 l 0,27 l-57 0 z" fill="#fffbf9" stroke="#3b4044"/><text alignment-baseline="central" text-anchor="left" opacity="1" stroke-width="1" stroke-opacity="1" fill-opacity="1" x="-0.5" y="200.5" font-size="11.9" font-family="Source Code Pro, sans-serif" font-style="normal" font-weight="normal" font-variant="normal" width="21.42" height="8" fill="#3b4044" id="entity-Module_Translation-attr-7-type" paint-order="stroke" style="stroke-linecap:butt; stroke-linejoin:miter;" stroke="none" class="er__entity-label" transform="matrix(1,0,0,1,36.5,192.5)">INT</text><path opacity="1" stroke-width="1" stroke-opacity="1" fill-opacity="1" d="M 85.5,379.5 l 129,0 l 0,27 l-129 0 z" fill="#fffbf9" stroke="#3b4044"/><text alignment-baseline="central" text-anchor="left" opacity="1" stroke-width="1" stroke-opacity="1" fill-opacity="1" x="-0.5" y="200.5" font-size="11.9" font-family="Source Code Pro, sans-serif" font-style="normal" font-weight="normal" font-variant="normal" width="71.4" height="12" fill="#3b4044" id="entity-Module_Translation-attr-7-name" paint-order="stroke" style="stroke-linecap:butt; stroke-linejoin:miter;" stroke="none" class="er__entity-label" transform="matrix(1,0,0,1,93.5,192.5)">languageId</text></g><g opacity="1"><path opacity="1" stroke-width="1" stroke-opacity="1" fill-opacity="1" d="M -0.5,406.5 l 29,0 l 0,25 l-29 0 z" fill="#fffbf9" stroke="#3b4044"/><text alignment-baseline="central" text-anchor="left" opacity="1" stroke-width="1" stroke-opacity="1" fill-opacity="1" x="-0.5" y="200.5" font-size="11.9" font-family="Source Code Pro, sans-serif" font-style="normal" font-weight="normal" font-variant="normal" width="14.28" height="8" fill="#3b4044" id="entity-Module_Translation-attr-8-key" paint-order="stroke" style="stroke-linecap:butt; stroke-linejoin:miter;" stroke="none" class="er__entity-label" transform="matrix(1,0,0,1,7.5,218.5)">FK</text><path opacity="1" stroke-width="1" stroke-opacity="1" fill-opacity="1" d="M 28.5,406.5 l 57,0 l 0,25 l-57 0 z" fill="#fffbf9" stroke="#3b4044"/><text alignment-baseline="central" text-anchor="left" opacity="1" stroke-width="1" stroke-opacity="1" fill-opacity="1" x="-0.5" y="200.5" font-size="11.9" font-family="Source Code Pro, sans-serif" font-style="normal" font-weight="normal" font-variant="normal" width="21.42" height="8" fill="#3b4044" id="entity-Module_Translation-attr-8-type" paint-order="stroke" style="stroke-linecap:butt; stroke-linejoin:miter;" stroke="none" class="er__entity-label" transform="matrix(1,0,0,1,36.5,218.5)">INT</text><path opacity="1" stroke-width="1" stroke-opacity="1" fill-opacity="1" d="M 85.5,406.5 l 129,0 l 0,25 l-129 0 z" fill="#fffbf9" stroke="#3b4044"/><text alignment-baseline="central" text-anchor="left" opacity="1" stroke-width="1" stroke-opacity="1" fill-opacity="1" x="-0.5" y="200.5" font-size="11.9" font-family="Source Code Pro, sans-serif" font-style="normal" font-weight="normal" font-variant="normal" width="57.12" height="10" fill="#3b4044" id="entity-Module_Translation-attr-8-name" paint-order="stroke" style="stroke-linecap:butt; stroke-linejoin:miter;" stroke="none" class="er__entity-label" transform="matrix(1,0,0,1,93.5,218.5)">moduleId</text></g></g></g><g opacity="1"/></g></svg>