<svg xmlns="http://www.w3.org/2000/svg" width="1060.7" height="680" style="width: 1060.7px; height: 680px;"><defs id="defs_112"/><path opacity="1" stroke-width="1" stroke-opacity="1" fill-opacity="1" d="M 0,0 l 1060.7,0 l 0,680 l-1060.7 0 z" fill="#fff" stroke="none"/><g opacity="1" transform="matrix(1,0,0,1,15,15)"><g opacity="1" class="er__relations"><path opacity="1" stroke-width="1" stroke-opacity="1" fill-opacity="1" d="M 345 500L 345 550L 345 600" stroke="#3b4044" stroke-linejoin="round" fill="none"/><path opacity="0.85" stroke-width="1" stroke-opacity="1" fill-opacity="1" d="M 291.1,541 l 107.8,0 l 0,20 l-107.8 0 z" fill="#fff" id="#rel13709" stroke="none" class="label-bg"/><text alignment-baseline="central" text-anchor="middle" opacity="1" stroke-width="1" stroke-opacity="1" fill-opacity="1" x="345" y="550" font-size="14" font-family="Source Code Pro, sans-serif" font-style="normal" font-weight="400" font-variant="normal" id="rel13709" fill="#3b4044" paint-order="stroke" style="stroke-linecap:butt; stroke-linejoin:miter;" stroke="none" class="er__relationship-label">translations</text><path opacity="1" stroke-width="1" stroke-opacity="1" fill-opacity="1" d="M9,-9 L9,9 M15,-9 L15,9" stroke="#3b4044" id="UsertranslationsUser_Translation-start" fill="none" class="er-marker er-marker--only-one" transform="matrix(6.123234262925839e-17,1,-1,6.123234262925839e-17,345,500)"/><g opacity="1" class="er-marker er-marker--zero-or-more" transform="matrix(6.123234262925839e-17,-1,1,6.123234262925839e-17,345,600)"><circle opacity="1" stroke-width="1" stroke-opacity="1" fill-opacity="1" cx="28" cy="0" r="6" stroke="#3b4044" id="UsertranslationsUser_Translation-end" fill="#fff"/><path opacity="1" stroke-width="1" stroke-opacity="1" fill-opacity="1" stroke="#3b4044" id="UsertranslationsUser_Translation-end" d="M-18,0 Q 0,18 18,0 Q 0,-18 -18,0" fill="none"/></g><path opacity="1" stroke-width="1" stroke-opacity="1" fill-opacity="1" d="M 564 31.103763987792473L 112.5 100L 112.5 175L 112.5 250L 112.5 300" stroke="#3b4044" stroke-linejoin="round" fill="none"/><path opacity="0.85" stroke-width="1" stroke-opacity="1" fill-opacity="1" d="M 54.4,89.5 l 116.2,0 l 0,23 l-116.2 0 z" fill="#fff" id="#rel13710" stroke="none" class="label-bg"/><text alignment-baseline="central" text-anchor="middle" opacity="1" stroke-width="1" stroke-opacity="1" fill-opacity="1" x="112.5" y="100" font-size="14" font-family="Source Code Pro, sans-serif" font-style="normal" font-weight="400" font-variant="normal" id="rel13710" fill="#3b4044" paint-order="stroke" style="stroke-linecap:butt; stroke-linejoin:miter;" stroke="none" class="er__relationship-label">degreeProgram</text><g opacity="1" class="er-marker er-marker--zero-or-more" transform="matrix(-0.988556981086731,0.15084795653820038,-0.15084795653820038,-0.988556981086731,564,31.103763580322266)"><circle opacity="1" stroke-width="1" stroke-opacity="1" fill-opacity="1" cx="28" cy="0" r="6" stroke="#3b4044" id="ModuledegreeProgramDegreeProgram-start" fill="#fff"/><path opacity="1" stroke-width="1" stroke-opacity="1" fill-opacity="1" stroke="#3b4044" id="ModuledegreeProgramDegreeProgram-start" d="M-18,0 Q 0,18 18,0 Q 0,-18 -18,0" fill="none"/></g><path opacity="1" stroke-width="1" stroke-opacity="1" fill-opacity="1" d="M9,-9 L9,9 M15,-9 L15,9" stroke="#3b4044" id="ModuledegreeProgramDegreeProgram-end" fill="none" class="er-marker er-marker--only-one" transform="matrix(6.123234262925839e-17,-1,1,6.123234262925839e-17,112.5,300)"/><path opacity="1" stroke-width="1" stroke-opacity="1" fill-opacity="1" d="M 564 36.811023622047244L 350 100L 350 150" stroke="#3b4044" stroke-linejoin="round" fill="none"/><path opacity="0.85" stroke-width="1" stroke-opacity="1" fill-opacity="1" d="M 304.5,91 l 91,0 l 0,20 l-91 0 z" fill="#fff" id="#rel13711" stroke="none" class="label-bg"/><text alignment-baseline="central" text-anchor="middle" opacity="1" stroke-width="1" stroke-opacity="1" fill-opacity="1" x="350" y="100" font-size="14" font-family="Source Code Pro, sans-serif" font-style="normal" font-weight="400" font-variant="normal" id="rel13711" fill="#3b4044" paint-order="stroke" style="stroke-linecap:butt; stroke-linejoin:miter;" stroke="none" class="er__relationship-label">subModules</text><g opacity="1" class="er-marker er-marker--zero-or-more" transform="matrix(-0.9590643048286438,0.2831882834434509,-0.2831882834434509,-0.9590643048286438,564,36.8110237121582)"><circle opacity="1" stroke-width="1" stroke-opacity="1" fill-opacity="1" cx="28" cy="0" r="6" stroke="#3b4044" id="ModulesubModulesSubModule-start" fill="#fff"/><path opacity="1" stroke-width="1" stroke-opacity="1" fill-opacity="1" stroke="#3b4044" id="ModulesubModulesSubModule-start" d="M-18,0 Q 0,18 18,0 Q 0,-18 -18,0" fill="none"/></g><g opacity="1" class="er-marker er-marker--zero-or-more" transform="matrix(6.123234262925839e-17,-1,1,6.123234262925839e-17,350,150)"><circle opacity="1" stroke-width="1" stroke-opacity="1" fill-opacity="1" cx="28" cy="0" r="6" stroke="#3b4044" id="ModulesubModulesSubModule-end" fill="#fff"/><path opacity="1" stroke-width="1" stroke-opacity="1" fill-opacity="1" stroke="#3b4044" id="ModulesubModulesSubModule-end" d="M-18,0 Q 0,18 18,0 Q 0,-18 -18,0" fill="none"/></g><path opacity="1" stroke-width="1" stroke-opacity="1" fill-opacity="1" d="M 595.6666666666666 50L 579 100L 579 150" stroke="#3b4044" stroke-linejoin="round" fill="none"/><path opacity="0.85" stroke-width="1" stroke-opacity="1" fill-opacity="1" d="M 525.1,91 l 107.8,0 l 0,20 l-107.8 0 z" fill="#fff" id="#rel13712" stroke="none" class="label-bg"/><text alignment-baseline="central" text-anchor="middle" opacity="1" stroke-width="1" stroke-opacity="1" fill-opacity="1" x="579" y="100" font-size="14" font-family="Source Code Pro, sans-serif" font-style="normal" font-weight="400" font-variant="normal" id="rel13712" fill="#3b4044" paint-order="stroke" style="stroke-linecap:butt; stroke-linejoin:miter;" stroke="none" class="er__relationship-label">translations</text><path opacity="1" stroke-width="1" stroke-opacity="1" fill-opacity="1" d="M9,-9 L9,9 M15,-9 L15,9" stroke="#3b4044" id="ModuletranslationsModule_Translation-start" fill="none" class="er-marker er-marker--only-one" transform="matrix(-0.3162277638912201,0.9486833214759827,-0.9486833214759827,-0.3162277638912201,595.6666870117188,50)"/><g opacity="1" class="er-marker er-marker--zero-or-more" transform="matrix(6.123234262925839e-17,-1,1,6.123234262925839e-17,579,150)"><circle opacity="1" stroke-width="1" stroke-opacity="1" fill-opacity="1" cx="28" cy="0" r="6" stroke="#3b4044" id="ModuletranslationsModule_Translation-end" fill="#fff"/><path opacity="1" stroke-width="1" stroke-opacity="1" fill-opacity="1" stroke="#3b4044" id="ModuletranslationsModule_Translation-end" d="M-18,0 Q 0,18 18,0 Q 0,-18 -18,0" fill="none"/></g><path opacity="1" stroke-width="1" stroke-opacity="1" fill-opacity="1" d="M 644 40.58441558441558L 796.5 100L 796.5 150" stroke="#3b4044" stroke-linejoin="round" fill="none"/><path opacity="0.85" stroke-width="1" stroke-opacity="1" fill-opacity="1" d="M 772,91 l 49,0 l 0,20 l-49 0 z" fill="#fff" id="#rel13713" stroke="none" class="label-bg"/><text alignment-baseline="central" text-anchor="middle" opacity="1" stroke-width="1" stroke-opacity="1" fill-opacity="1" x="796.5" y="100" font-size="14" font-family="Source Code Pro, sans-serif" font-style="normal" font-weight="400" font-variant="normal" id="rel13713" fill="#3b4044" paint-order="stroke" style="stroke-linecap:butt; stroke-linejoin:miter;" stroke="none" class="er__relationship-label">group</text><g opacity="1" class="er-marker er-marker--zero-or-more" transform="matrix(0.9317774176597595,0.36303016543388367,-0.36303016543388367,0.9317774176597595,644,40.584415435791016)"><circle opacity="1" stroke-width="1" stroke-opacity="1" fill-opacity="1" cx="28" cy="0" r="6" stroke="#3b4044" id="ModulegroupModuleGroup-start" fill="#fff"/><path opacity="1" stroke-width="1" stroke-opacity="1" fill-opacity="1" stroke="#3b4044" id="ModulegroupModuleGroup-start" d="M-18,0 Q 0,18 18,0 Q 0,-18 -18,0" fill="none"/></g><path opacity="1" stroke-width="1" stroke-opacity="1" fill-opacity="1" d="M9,-9 L9,9 M15,-9 L15,9" stroke="#3b4044" id="ModulegroupModuleGroup-end" fill="none" class="er-marker er-marker--only-one" transform="matrix(6.123234262925839e-17,-1,1,6.123234262925839e-17,796.5,150)"/><path opacity="1" stroke-width="1" stroke-opacity="1" fill-opacity="1" d="M 644 32.95755968169761L 981 100L 981 175L 981 250L 981 325L 981 400L 385 470.2830188679245" stroke="#3b4044" stroke-linejoin="round" fill="none"/><path opacity="0.85" stroke-width="1" stroke-opacity="1" fill-opacity="1" d="M 931.3,90 l 99.4,0 l 0,22 l-99.4 0 z" fill="#fff" id="#rel13714" stroke="none" class="label-bg"/><text alignment-baseline="central" text-anchor="middle" opacity="1" stroke-width="1" stroke-opacity="1" fill-opacity="1" x="981" y="100" font-size="14" font-family="Source Code Pro, sans-serif" font-style="normal" font-weight="400" font-variant="normal" id="rel13714" fill="#3b4044" paint-order="stroke" style="stroke-linecap:butt; stroke-linejoin:miter;" stroke="none" class="er__relationship-label">responsible</text><g opacity="1" class="er-marker er-marker--zero-or-more" transform="matrix(0.980780303478241,0.19511544704437256,-0.19511544704437256,0.980780303478241,644,32.95756149291992)"><circle opacity="1" stroke-width="1" stroke-opacity="1" fill-opacity="1" cx="28" cy="0" r="6" stroke="#3b4044" id="ModuleresponsibleUser-start" fill="#fff"/><path opacity="1" stroke-width="1" stroke-opacity="1" fill-opacity="1" stroke="#3b4044" id="ModuleresponsibleUser-start" d="M-18,0 Q 0,18 18,0 Q 0,-18 -18,0" fill="none"/></g><g opacity="1" class="er-marker er-marker--zero-or-one" transform="matrix(0.9931185841560364,-0.11711303889751434,0.11711303889751434,0.9931185841560364,385,470.28302001953125)"><circle opacity="1" stroke-width="1" stroke-opacity="1" fill-opacity="1" cx="28" cy="0" r="6" stroke="#3b4044" id="ModuleresponsibleUser-end" fill="#fff"/><path opacity="1" stroke-width="1" stroke-opacity="1" fill-opacity="1" stroke="#3b4044" id="ModuleresponsibleUser-end" d="M14,-9 L14,9" fill="none"/></g><path opacity="1" stroke-width="1" stroke-opacity="1" fill-opacity="1" d="M 309.5833333333333 200L 228.75 250L 151.25 300" stroke="#3b4044" stroke-linejoin="round" fill="none"/><path opacity="0.85" stroke-width="1" stroke-opacity="1" fill-opacity="1" d="M 170.65,239.5 l 116.2,0 l 0,23 l-116.2 0 z" fill="#fff" id="#rel13715" stroke="none" class="label-bg"/><text alignment-baseline="central" text-anchor="middle" opacity="1" stroke-width="1" stroke-opacity="1" fill-opacity="1" x="228.75" y="250" font-size="14" font-family="Source Code Pro, sans-serif" font-style="normal" font-weight="400" font-variant="normal" id="rel13715" fill="#3b4044" paint-order="stroke" style="stroke-linecap:butt; stroke-linejoin:miter;" stroke="none" class="er__relationship-label">degreeProgram</text><g opacity="1" class="er-marker er-marker--zero-or-more" transform="matrix(-0.8504519462585449,0.5260527729988098,-0.5260527729988098,-0.8504519462585449,309.5833435058594,200)"><circle opacity="1" stroke-width="1" stroke-opacity="1" fill-opacity="1" cx="28" cy="0" r="6" stroke="#3b4044" id="SubModuledegreeProgramDegreeProgram-start" fill="#fff"/><path opacity="1" stroke-width="1" stroke-opacity="1" fill-opacity="1" stroke="#3b4044" id="SubModuledegreeProgramDegreeProgram-start" d="M-18,0 Q 0,18 18,0 Q 0,-18 -18,0" fill="none"/></g><path opacity="1" stroke-width="1" stroke-opacity="1" fill-opacity="1" d="M9,-9 L9,9 M15,-9 L15,9" stroke="#3b4044" id="SubModuledegreeProgramDegreeProgram-end" fill="none" class="er-marker er-marker--only-one" transform="matrix(0.8402966260910034,-0.5421268939971924,0.5421268939971924,0.8402966260910034,151.25,300)"/><path opacity="1" stroke-width="1" stroke-opacity="1" fill-opacity="1" d="M 346.6666666666667 200L 340 250L 340 325L 340 400L 343.3333333333333 450" stroke="#3b4044" stroke-linejoin="round" fill="none"/><path opacity="0.85" stroke-width="1" stroke-opacity="1" fill-opacity="1" d="M 290.3,240 l 99.4,0 l 0,22 l-99.4 0 z" fill="#fff" id="#rel13716" stroke="none" class="label-bg"/><text alignment-baseline="central" text-anchor="middle" opacity="1" stroke-width="1" stroke-opacity="1" fill-opacity="1" x="340" y="250" font-size="14" font-family="Source Code Pro, sans-serif" font-style="normal" font-weight="400" font-variant="normal" id="rel13716" fill="#3b4044" paint-order="stroke" style="stroke-linecap:butt; stroke-linejoin:miter;" stroke="none" class="er__relationship-label">responsible</text><g opacity="1" class="er-marker er-marker--zero-or-more" transform="matrix(-0.13216371834278107,0.991227924823761,-0.991227924823761,-0.13216371834278107,346.6666564941406,200)"><circle opacity="1" stroke-width="1" stroke-opacity="1" fill-opacity="1" cx="28" cy="0" r="6" stroke="#3b4044" id="SubModuleresponsibleUser-start" fill="#fff"/><path opacity="1" stroke-width="1" stroke-opacity="1" fill-opacity="1" stroke="#3b4044" id="SubModuleresponsibleUser-start" d="M-18,0 Q 0,18 18,0 Q 0,-18 -18,0" fill="none"/></g><g opacity="1" class="er-marker er-marker--zero-or-one" transform="matrix(-0.06651900708675385,-0.9977851510047913,0.9977851510047913,-0.06651900708675385,343.3333435058594,450)"><circle opacity="1" stroke-width="1" stroke-opacity="1" fill-opacity="1" cx="28" cy="0" r="6" stroke="#3b4044" id="SubModuleresponsibleUser-end" fill="#fff"/><path opacity="1" stroke-width="1" stroke-opacity="1" fill-opacity="1" stroke="#3b4044" id="SubModuleresponsibleUser-end" d="M14,-9 L14,9" fill="none"/></g><path opacity="1" stroke-width="1" stroke-opacity="1" fill-opacity="1" d="M 395.5 195.55722891566265L 516 250L 516 300" stroke="#3b4044" stroke-linejoin="round" fill="none"/><path opacity="0.85" stroke-width="1" stroke-opacity="1" fill-opacity="1" d="M 462.1,241 l 107.8,0 l 0,20 l-107.8 0 z" fill="#fff" id="#rel13717" stroke="none" class="label-bg"/><text alignment-baseline="central" text-anchor="middle" opacity="1" stroke-width="1" stroke-opacity="1" fill-opacity="1" x="516" y="250" font-size="14" font-family="Source Code Pro, sans-serif" font-style="normal" font-weight="400" font-variant="normal" id="rel13717" fill="#3b4044" paint-order="stroke" style="stroke-linecap:butt; stroke-linejoin:miter;" stroke="none" class="er__relationship-label">translations</text><path opacity="1" stroke-width="1" stroke-opacity="1" fill-opacity="1" d="M9,-9 L9,9 M15,-9 L15,9" stroke="#3b4044" id="SubModuletranslationsSubModule_Translation-start" fill="none" class="er-marker er-marker--only-one" transform="matrix(0.9113041758537292,0.41173380613327026,-0.41173380613327026,0.9113041758537292,395.5,195.55723571777344)"/><g opacity="1" class="er-marker er-marker--zero-or-more" transform="matrix(6.123234262925839e-17,-1,1,6.123234262925839e-17,516,300)"><circle opacity="1" stroke-width="1" stroke-opacity="1" fill-opacity="1" cx="28" cy="0" r="6" stroke="#3b4044" id="SubModuletranslationsSubModule_Translation-end" fill="#fff"/><path opacity="1" stroke-width="1" stroke-opacity="1" fill-opacity="1" stroke="#3b4044" id="SubModuletranslationsSubModule_Translation-end" d="M-18,0 Q 0,18 18,0 Q 0,-18 -18,0" fill="none"/></g><path opacity="1" stroke-width="1" stroke-opacity="1" fill-opacity="1" d="M 112.5 350L 112.5 400L 112.5 450" stroke="#3b4044" stroke-linejoin="round" fill="none"/><path opacity="0.85" stroke-width="1" stroke-opacity="1" fill-opacity="1" d="M 58.6,391 l 107.8,0 l 0,20 l-107.8 0 z" fill="#fff" id="#rel13718" stroke="none" class="label-bg"/><text alignment-baseline="central" text-anchor="middle" opacity="1" stroke-width="1" stroke-opacity="1" fill-opacity="1" x="112.5" y="400" font-size="14" font-family="Source Code Pro, sans-serif" font-style="normal" font-weight="400" font-variant="normal" id="rel13718" fill="#3b4044" paint-order="stroke" style="stroke-linecap:butt; stroke-linejoin:miter;" stroke="none" class="er__relationship-label">translations</text><path opacity="1" stroke-width="1" stroke-opacity="1" fill-opacity="1" d="M9,-9 L9,9 M15,-9 L15,9" stroke="#3b4044" id="DegreeProgramtranslationsDegreeProgram_Translation-start" fill="none" class="er-marker er-marker--only-one" transform="matrix(6.123234262925839e-17,1,-1,6.123234262925839e-17,112.5,350)"/><g opacity="1" class="er-marker er-marker--zero-or-more" transform="matrix(6.123234262925839e-17,-1,1,6.123234262925839e-17,112.5,450)"><circle opacity="1" stroke-width="1" stroke-opacity="1" fill-opacity="1" cx="28" cy="0" r="6" stroke="#3b4044" id="DegreeProgramtranslationsDegreeProgram_Translation-end" fill="#fff"/><path opacity="1" stroke-width="1" stroke-opacity="1" fill-opacity="1" stroke="#3b4044" id="DegreeProgramtranslationsDegreeProgram_Translation-end" d="M-18,0 Q 0,18 18,0 Q 0,-18 -18,0" fill="none"/></g><path opacity="1" stroke-width="1" stroke-opacity="1" fill-opacity="1" d="M 151.25 350L 228.75 400L 306.25 450" stroke="#3b4044" stroke-linejoin="round" fill="none"/><path opacity="0.85" stroke-width="1" stroke-opacity="1" fill-opacity="1" d="M 179.05,390 l 99.4,0 l 0,22 l-99.4 0 z" fill="#fff" id="#rel13719" stroke="none" class="label-bg"/><text alignment-baseline="central" text-anchor="middle" opacity="1" stroke-width="1" stroke-opacity="1" fill-opacity="1" x="228.75" y="400" font-size="14" font-family="Source Code Pro, sans-serif" font-style="normal" font-weight="400" font-variant="normal" id="rel13719" fill="#3b4044" paint-order="stroke" style="stroke-linecap:butt; stroke-linejoin:miter;" stroke="none" class="er__relationship-label">responsible</text><g opacity="1" class="er-marker er-marker--zero-or-one" transform="matrix(0.8402966260910034,0.5421268939971924,-0.5421268939971924,0.8402966260910034,151.25,350)"><circle opacity="1" stroke-width="1" stroke-opacity="1" fill-opacity="1" cx="28" cy="0" r="6" stroke="#3b4044" id="DegreeProgramresponsibleUser-start" fill="#fff"/><path opacity="1" stroke-width="1" stroke-opacity="1" fill-opacity="1" stroke="#3b4044" id="DegreeProgramresponsibleUser-start" d="M14,-9 L14,9" fill="none"/></g><g opacity="1" class="er-marker er-marker--zero-or-one" transform="matrix(-0.8402966260910034,-0.5421268939971924,0.5421268939971924,-0.8402966260910034,306.25,450)"><circle opacity="1" stroke-width="1" stroke-opacity="1" fill-opacity="1" cx="28" cy="0" r="6" stroke="#3b4044" id="DegreeProgramresponsibleUser-end" fill="#fff"/><path opacity="1" stroke-width="1" stroke-opacity="1" fill-opacity="1" stroke="#3b4044" id="DegreeProgramresponsibleUser-end" d="M14,-9 L14,9" fill="none"/></g><path opacity="1" stroke-width="1" stroke-opacity="1" fill-opacity="1" d="M 796.5 200L 796.5 250L 796.5 300" stroke="#3b4044" stroke-linejoin="round" fill="none"/><path opacity="0.85" stroke-width="1" stroke-opacity="1" fill-opacity="1" d="M 742.6,241 l 107.8,0 l 0,20 l-107.8 0 z" fill="#fff" id="#rel13720" stroke="none" class="label-bg"/><text alignment-baseline="central" text-anchor="middle" opacity="1" stroke-width="1" stroke-opacity="1" fill-opacity="1" x="796.5" y="250" font-size="14" font-family="Source Code Pro, sans-serif" font-style="normal" font-weight="400" font-variant="normal" id="rel13720" fill="#3b4044" paint-order="stroke" style="stroke-linecap:butt; stroke-linejoin:miter;" stroke="none" class="er__relationship-label">translations</text><path opacity="1" stroke-width="1" stroke-opacity="1" fill-opacity="1" d="M9,-9 L9,9 M15,-9 L15,9" stroke="#3b4044" id="ModuleGrouptranslationsModuleGroup_Translation-start" fill="none" class="er-marker er-marker--only-one" transform="matrix(6.123234262925839e-17,1,-1,6.123234262925839e-17,796.5,200)"/><g opacity="1" class="er-marker er-marker--zero-or-more" transform="matrix(6.123234262925839e-17,-1,1,6.123234262925839e-17,796.5,300)"><circle opacity="1" stroke-width="1" stroke-opacity="1" fill-opacity="1" cx="28" cy="0" r="6" stroke="#3b4044" id="ModuleGrouptranslationsModuleGroup_Translation-end" fill="#fff"/><path opacity="1" stroke-width="1" stroke-opacity="1" fill-opacity="1" stroke="#3b4044" id="ModuleGrouptranslationsModuleGroup_Translation-end" d="M-18,0 Q 0,18 18,0 Q 0,-18 -18,0" fill="none"/></g></g><g opacity="1" class="er__entity"><path opacity="1" stroke-width="1" stroke-opacity="1" fill-opacity="1" d="M 307,450 l 76,0 a 2,2,0,0,1,2,2 l 0,46 a 2,2,0,0,1,-2,2 l -76,0 a 2,2,0,0,1,-2,-2 l 0,-46 a 2,2,0,0,1,2,-2 z" fill="#fdb05e" stroke="#3b4044" class="er__entity-box"/><text alignment-baseline="central" text-anchor="middle" opacity="1" stroke-width="1" stroke-opacity="1" fill-opacity="1" x="305" y="450" font-size="14" font-family="Source Code Pro, sans-serif" font-style="normal" font-weight="bold" font-variant="normal" fill="#3b4044" width="33.6" height="11" id="entity-User" paint-order="stroke" style="stroke-linecap:butt; stroke-linejoin:miter;" stroke="none" class="er__entity-label" transform="matrix(1,0,0,1,40,25)">User</text><g opacity="1"/></g><g opacity="1" class="er__entity"><path opacity="1" stroke-width="1" stroke-opacity="1" fill-opacity="1" d="M 272,600 l 146,0 a 2,2,0,0,1,2,2 l 0,46 a 2,2,0,0,1,-2,2 l -146,0 a 2,2,0,0,1,-2,-2 l 0,-46 a 2,2,0,0,1,2,-2 z" fill="#fdb05e" stroke="#3b4044" class="er__entity-box"/><text alignment-baseline="central" text-anchor="middle" opacity="1" stroke-width="1" stroke-opacity="1" fill-opacity="1" x="270" y="600" font-size="14" font-family="Source Code Pro, sans-serif" font-style="normal" font-weight="bold" font-variant="normal" fill="#3b4044" width="134.4" height="12" id="entity-User_Translation" paint-order="stroke" style="stroke-linecap:butt; stroke-linejoin:miter;" stroke="none" class="er__entity-label" transform="matrix(1,0,0,1,75,25)">User_Translation</text><g opacity="1"/></g><g opacity="1" class="er__entity"><path opacity="1" stroke-width="1" stroke-opacity="1" fill-opacity="1" d="M 566,0 l 76,0 a 2,2,0,0,1,2,2 l 0,46 a 2,2,0,0,1,-2,2 l -76,0 a 2,2,0,0,1,-2,-2 l 0,-46 a 2,2,0,0,1,2,-2 z" fill="#fdb05e" stroke="#3b4044" class="er__entity-box"/><text alignment-baseline="central" text-anchor="middle" opacity="1" stroke-width="1" stroke-opacity="1" fill-opacity="1" x="564" y="0" font-size="14" font-family="Source Code Pro, sans-serif" font-style="normal" font-weight="bold" font-variant="normal" fill="#3b4044" width="50.4" height="11" id="entity-Module" paint-order="stroke" style="stroke-linecap:butt; stroke-linejoin:miter;" stroke="none" class="er__entity-label" transform="matrix(1,0,0,1,40,25)">Module</text><g opacity="1"/></g><g opacity="1" class="er__entity"><path opacity="1" stroke-width="1" stroke-opacity="1" fill-opacity="1" d="M 51.5,300 l 121,0 a 2,2,0,0,1,2,2 l 0,46 a 2,2,0,0,1,-2,2 l -121,0 a 2,2,0,0,1,-2,-2 l 0,-46 a 2,2,0,0,1,2,-2 z" fill="#fdb05e" stroke="#3b4044" class="er__entity-box"/><text alignment-baseline="central" text-anchor="middle" opacity="1" stroke-width="1" stroke-opacity="1" fill-opacity="1" x="49.5" y="300" font-size="14" font-family="Source Code Pro, sans-serif" font-style="normal" font-weight="bold" font-variant="normal" fill="#3b4044" width="109.2" height="14" id="entity-DegreeProgram" paint-order="stroke" style="stroke-linecap:butt; stroke-linejoin:miter;" stroke="none" class="er__entity-label" transform="matrix(1,0,0,1,62.5,25)">DegreeProgram</text><g opacity="1"/></g><g opacity="1" class="er__entity"><path opacity="1" stroke-width="1" stroke-opacity="1" fill-opacity="1" d="M 306.5,150 l 87,0 a 2,2,0,0,1,2,2 l 0,46 a 2,2,0,0,1,-2,2 l -87,0 a 2,2,0,0,1,-2,-2 l 0,-46 a 2,2,0,0,1,2,-2 z" fill="#fdb05e" stroke="#3b4044" class="er__entity-box"/><text alignment-baseline="central" text-anchor="middle" opacity="1" stroke-width="1" stroke-opacity="1" fill-opacity="1" x="304.5" y="150" font-size="14" font-family="Source Code Pro, sans-serif" font-style="normal" font-weight="bold" font-variant="normal" fill="#3b4044" width="75.6" height="11" id="entity-SubModule" paint-order="stroke" style="stroke-linecap:butt; stroke-linejoin:miter;" stroke="none" class="er__entity-label" transform="matrix(1,0,0,1,45.5,25)">SubModule</text><g opacity="1"/></g><g opacity="1" class="er__entity"><path opacity="1" stroke-width="1" stroke-opacity="1" fill-opacity="1" d="M 497.5,150 l 163,0 a 2,2,0,0,1,2,2 l 0,46 a 2,2,0,0,1,-2,2 l -163,0 a 2,2,0,0,1,-2,-2 l 0,-46 a 2,2,0,0,1,2,-2 z" fill="#fdb05e" stroke="#3b4044" class="er__entity-box"/><text alignment-baseline="central" text-anchor="middle" opacity="1" stroke-width="1" stroke-opacity="1" fill-opacity="1" x="495.5" y="150" font-size="14" font-family="Source Code Pro, sans-serif" font-style="normal" font-weight="bold" font-variant="normal" fill="#3b4044" width="151.2" height="12" id="entity-Module_Translation" paint-order="stroke" style="stroke-linecap:butt; stroke-linejoin:miter;" stroke="none" class="er__entity-label" transform="matrix(1,0,0,1,83.5,25)">Module_Translation</text><g opacity="1"/></g><g opacity="1" class="er__entity"><path opacity="1" stroke-width="1" stroke-opacity="1" fill-opacity="1" d="M 744,150 l 104,0 a 2,2,0,0,1,2,2 l 0,46 a 2,2,0,0,1,-2,2 l -104,0 a 2,2,0,0,1,-2,-2 l 0,-46 a 2,2,0,0,1,2,-2 z" fill="#fdb05e" stroke="#3b4044" class="er__entity-box"/><text alignment-baseline="central" text-anchor="middle" opacity="1" stroke-width="1" stroke-opacity="1" fill-opacity="1" x="742" y="150" font-size="14" font-family="Source Code Pro, sans-serif" font-style="normal" font-weight="bold" font-variant="normal" fill="#3b4044" width="92.4" height="13" id="entity-ModuleGroup" paint-order="stroke" style="stroke-linecap:butt; stroke-linejoin:miter;" stroke="none" class="er__entity-label" transform="matrix(1,0,0,1,54,25)">ModuleGroup</text><g opacity="1"/></g><g opacity="1" class="er__entity"><path opacity="1" stroke-width="1" stroke-opacity="1" fill-opacity="1" d="M 422,300 l 188,0 a 2,2,0,0,1,2,2 l 0,46 a 2,2,0,0,1,-2,2 l -188,0 a 2,2,0,0,1,-2,-2 l 0,-46 a 2,2,0,0,1,2,-2 z" fill="#fdb05e" stroke="#3b4044" class="er__entity-box"/><text alignment-baseline="central" text-anchor="middle" opacity="1" stroke-width="1" stroke-opacity="1" fill-opacity="1" x="420" y="300" font-size="14" font-family="Source Code Pro, sans-serif" font-style="normal" font-weight="bold" font-variant="normal" fill="#3b4044" width="176.4" height="12" id="entity-SubModule_Translation" paint-order="stroke" style="stroke-linecap:butt; stroke-linejoin:miter;" stroke="none" class="er__entity-label" transform="matrix(1,0,0,1,96,25)">SubModule_Translation</text><g opacity="1"/></g><g opacity="1" class="er__entity"><path opacity="1" stroke-width="1" stroke-opacity="1" fill-opacity="1" d="M 1.5,450 l 221,0 a 2,2,0,0,1,2,2 l 0,46 a 2,2,0,0,1,-2,2 l -221,0 a 2,2,0,0,1,-2,-2 l 0,-46 a 2,2,0,0,1,2,-2 z" fill="#fdb05e" stroke="#3b4044" class="er__entity-box"/><text alignment-baseline="central" text-anchor="middle" opacity="1" stroke-width="1" stroke-opacity="1" fill-opacity="1" x="-0.5" y="450" font-size="14" font-family="Source Code Pro, sans-serif" font-style="normal" font-weight="bold" font-variant="normal" fill="#3b4044" width="210" height="14" id="entity-DegreeProgram_Translation" paint-order="stroke" style="stroke-linecap:butt; stroke-linejoin:miter;" stroke="none" class="er__entity-label" transform="matrix(1,0,0,1,112.5,25)">DegreeProgram_Translation</text><g opacity="1"/></g><g opacity="1" class="er__entity"><path opacity="1" stroke-width="1" stroke-opacity="1" fill-opacity="1" d="M 693.5,300 l 205,0 a 2,2,0,0,1,2,2 l 0,46 a 2,2,0,0,1,-2,2 l -205,0 a 2,2,0,0,1,-2,-2 l 0,-46 a 2,2,0,0,1,2,-2 z" fill="#fdb05e" stroke="#3b4044" class="er__entity-box"/><text alignment-baseline="central" text-anchor="middle" opacity="1" stroke-width="1" stroke-opacity="1" fill-opacity="1" x="691.5" y="300" font-size="14" font-family="Source Code Pro, sans-serif" font-style="normal" font-weight="bold" font-variant="normal" fill="#3b4044" width="193.2" height="13" id="entity-ModuleGroup_Translation" paint-order="stroke" style="stroke-linecap:butt; stroke-linejoin:miter;" stroke="none" class="er__entity-label" transform="matrix(1,0,0,1,104.5,25)">ModuleGroup_Translation</text><g opacity="1"/></g><g opacity="1"/></g></svg>